<svg width="50" height="44" viewBox="0 0 50 44" fill="none" xmlns="http://www.w3.org/2000/svg">
<path d="M18.0415 6.39893C18.8505 6.39893 19.5063 5.74307 19.5063 4.93408V1.98437C19.5063 1.17539 18.8505 0.519531 18.0415 0.519531C17.2325 0.519531 16.5767 1.17539 16.5767 1.98437V4.93408C16.5767 5.74307 17.2325 6.39893 18.0415 6.39893Z" fill="#D4962E"/>
<path d="M4.75206 11.761L2.19747 10.2861C1.49678 9.88137 0.600886 10.1216 0.196492 10.8222C-0.208 11.5229 0.0320386 12.4188 0.732624 12.8232L3.28721 14.2981C3.98624 14.7018 4.88282 14.4642 5.28819 13.7619C5.69268 13.0613 5.45264 12.1654 4.75206 11.761Z" fill="#D4962E"/>
<path d="M3.28721 27.9519L0.732624 29.4267C0.0320386 29.8312 -0.208 30.727 0.196492 31.4277C0.603035 32.1318 1.5002 32.3665 2.19747 31.9638L4.75206 30.4889C5.45264 30.0844 5.69268 29.1886 5.28819 28.4879C4.8837 27.7874 3.988 27.5471 3.28721 27.9519Z" fill="#D4962E"/>
<path d="M32.7951 14.2981L35.3497 12.8232C36.0503 12.4187 36.2903 11.5229 35.8858 10.8222C35.4814 10.1216 34.5857 9.88137 33.8849 10.2861L31.3303 11.761C30.6297 12.1654 30.3897 13.0613 30.7941 13.7619C31.2007 14.466 32.0979 14.7008 32.7951 14.2981Z" fill="#D4962E"/>
<path d="M38.9559 23.2045C37.279 19.0607 33.2114 16.3209 28.7366 16.3402C26.9029 12.2573 22.7995 9.40613 18.0414 9.40613C11.5797 9.40613 6.32275 14.6632 6.32275 21.1249C6.32275 25.2705 8.4876 28.9187 11.7451 31.0025C8.27178 36.4896 12.221 43.6835 18.7187 43.6835C41.7668 43.6594 40.5057 43.7425 40.907 43.6178C46.0269 43.0404 50.0002 38.698 50.0002 33.4297C50.0002 27.4134 44.8594 22.7421 38.9559 23.2045ZM9.25244 21.125C9.25244 16.2787 13.1952 12.3359 18.0415 12.3359C21.3096 12.3359 24.165 14.1299 25.6793 16.7839C21.0505 18.1402 17.8365 22.3661 17.785 27.2145C16.3299 27.3742 14.9579 27.9178 13.7763 28.8064C11.0805 27.3036 9.25244 24.4242 9.25244 21.125ZM40.3529 40.7287C39.8311 40.7711 26.5381 40.7465 18.7187 40.7539C13.8886 40.7539 11.5348 34.7666 15.1286 31.4847C16.2073 30.4997 17.6437 29.9756 19.209 30.1179C20.1532 30.2031 20.9227 29.3862 20.7923 28.4558C20.1132 23.6091 23.8664 19.2695 28.7697 19.2695C32.3971 19.2695 35.5941 21.7111 36.5443 25.2071C36.7475 25.9541 37.4968 26.4137 38.2545 26.2574C42.8202 25.3132 47.0705 28.8034 47.0705 33.4297C47.0705 37.2144 44.1198 40.4206 40.3529 40.7287Z" fill="#D4962E"/>
</svg>
