<svg width="50" height="41" viewBox="0 0 50 41" fill="none" xmlns="http://www.w3.org/2000/svg">
<path d="M46.0984 23.1298C45.3981 23.5675 44.8921 23.8837 43.7496 23.8837C42.607 23.8837 42.1011 23.5675 41.4007 23.1298C40.8455 22.7828 40.2004 22.3819 39.2746 22.1426C38.8768 14.6133 32.6262 8.60986 24.9995 8.60986C17.3729 8.60986 11.1223 14.6132 10.7245 22.1425C9.79863 22.3817 9.15342 22.7828 8.59824 23.1298C7.89805 23.5674 7.39199 23.8837 6.24971 23.8837C5.10742 23.8837 4.60146 23.5675 3.90127 23.1298C3.04648 22.5955 1.98262 21.9306 0 21.9306V24.8603C1.14229 24.8603 1.64824 25.1765 2.34844 25.6142C3.20322 26.1484 4.26709 26.8134 6.24971 26.8134C8.23232 26.8134 9.29619 26.1484 10.1511 25.6142C10.8513 25.1766 11.3573 24.8603 12.4996 24.8603C13.6419 24.8603 14.1479 25.1765 14.8481 25.6142C15.703 26.1484 16.7669 26.8134 18.7495 26.8134C20.732 26.8134 21.7959 26.1484 22.6507 25.6142C23.3509 25.1766 23.8568 24.8603 24.9991 24.8603C26.1415 24.8603 26.6475 25.1765 27.3478 25.6142C28.2026 26.1484 29.2665 26.8134 31.2491 26.8134C33.2317 26.8134 34.2957 26.1484 35.1505 25.6142C35.8508 25.1765 36.3568 24.8603 37.4992 24.8603C38.6417 24.8603 39.1478 25.1765 39.848 25.6142C40.7029 26.1484 41.7669 26.8134 43.7496 26.8134C45.7323 26.8134 46.7962 26.1484 47.6512 25.6142C48.3515 25.1765 48.8575 24.8603 50 24.8603V21.9306C48.0173 21.9306 46.9534 22.5955 46.0984 23.1298ZM33.5979 23.1298C32.8976 23.5675 32.3915 23.8837 31.2491 23.8837C30.1067 23.8837 29.6008 23.5675 28.9006 23.1298C28.0457 22.5955 26.9818 21.9306 24.9992 21.9306C23.0167 21.9306 21.9528 22.5955 21.098 23.1298C20.3979 23.5674 19.8919 23.8837 18.7496 23.8837C17.6072 23.8837 17.1013 23.5675 16.4011 23.1298C15.7322 22.7117 14.9331 22.2151 13.6684 22.0182C14.1225 16.1641 19.0312 11.5396 24.9997 11.5396C30.9683 11.5396 35.877 16.1641 36.3311 22.0181C35.0659 22.215 34.2667 22.7117 33.5979 23.1298Z" fill="#D4962E"/>
<path d="M43.7496 30.8698C42.607 30.8698 42.1011 30.5536 41.4007 30.1159C40.5458 29.5816 39.4818 28.9167 37.4991 28.9167C35.5165 28.9167 34.4525 29.5816 33.5978 30.1159C32.8975 30.5536 32.3914 30.8698 31.249 30.8698C30.1066 30.8698 29.6007 30.5536 28.9005 30.1159C28.0456 29.5816 26.9817 28.9167 24.9991 28.9167C23.0166 28.9167 21.9527 29.5816 21.0979 30.1159C20.3978 30.5535 19.8918 30.8698 18.7495 30.8698C17.6071 30.8698 17.1012 30.5536 16.401 30.1159C15.5461 29.5816 14.4822 28.9167 12.4996 28.9167C10.517 28.9167 9.45312 29.5816 8.59824 30.1159C7.89805 30.5535 7.39199 30.8698 6.24971 30.8698C5.10742 30.8698 4.60146 30.5536 3.90127 30.1159C3.04648 29.5816 1.98262 28.9167 0 28.9167V31.8464C1.14229 31.8464 1.64824 32.1626 2.34844 32.6003C3.20322 33.1346 4.26709 33.7995 6.24971 33.7995C8.23232 33.7995 9.29619 33.1346 10.1511 32.6003C10.8513 32.1627 11.3573 31.8464 12.4996 31.8464C13.6419 31.8464 14.1479 32.1626 14.8481 32.6003C15.703 33.1346 16.7669 33.7995 18.7495 33.7995C20.732 33.7995 21.7959 33.1346 22.6507 32.6003C23.3509 32.1627 23.8568 31.8464 24.9991 31.8464C26.1415 31.8464 26.6475 32.1626 27.3478 32.6003C28.2026 33.1346 29.2665 33.7995 31.2491 33.7995C33.2317 33.7995 34.2957 33.1346 35.1505 32.6003C35.8508 32.1626 36.3568 31.8464 37.4992 31.8464C38.6417 31.8464 39.1478 32.1626 39.848 32.6003C40.7029 33.1346 41.7669 33.7995 43.7496 33.7995C45.7323 33.7995 46.7962 33.1346 47.6512 32.6003C48.3515 32.1626 48.8575 31.8464 50 31.8464V28.9167C48.0173 28.9167 46.9534 29.5816 46.0984 30.1159C45.3981 30.5536 44.8921 30.8698 43.7496 30.8698Z" fill="#D4962E"/>
<path d="M31.2489 37.856C30.1065 37.856 29.6006 37.5397 28.9004 37.1021C28.0455 36.5678 26.9816 35.9028 24.999 35.9028C23.0165 35.9028 21.9526 36.5678 21.0979 37.1021C20.3977 37.5396 19.8917 37.856 18.7494 37.856C17.607 37.856 17.1011 37.5397 16.4009 37.1021C15.546 36.5678 14.4821 35.9028 12.4995 35.9028V38.8325C13.6419 38.8325 14.1479 39.1487 14.848 39.5864C15.7029 40.1207 16.7668 40.7856 18.7494 40.7856C20.7319 40.7856 21.7958 40.1207 22.6506 39.5864C23.3508 39.1488 23.8567 38.8325 24.999 38.8325C26.1414 38.8325 26.6474 39.1487 27.3477 39.5864C28.2025 40.1207 29.2664 40.7856 31.249 40.7856C33.2316 40.7856 34.2956 40.1207 35.1504 39.5864C35.8507 39.1487 36.3567 38.8325 37.4991 38.8325V35.9028C35.5165 35.9028 34.4525 36.5678 33.5978 37.1021C32.8973 37.5397 32.3913 37.856 31.2489 37.856Z" fill="#D4962E"/>
<path d="M23.5498 0.688599H26.4795V5.94143H23.5498V0.688599Z" fill="#D4962E"/>
<path d="M14.0552 3.51617L16.6948 2.24469L18.9746 6.97749L16.3349 8.24898L14.0552 3.51617Z" fill="#D4962E"/>
<path d="M6.73242 10.1918L8.56055 7.90076L12.6683 11.1785L10.8401 13.4695L6.73242 10.1918Z" fill="#D4962E"/>
<path d="M3.021 19.3845L3.67432 16.5281L8.79573 17.6994L8.14241 20.5559L3.021 19.3845Z" fill="#D4962E"/>
<path d="M41.229 17.6991L46.3505 16.5277L47.0038 19.3842L41.8823 20.5555L41.229 17.6991Z" fill="#D4962E"/>
<path d="M37.3721 11.1785L41.4798 7.90076L43.3079 10.1918L39.2002 13.4695L37.3721 11.1785Z" fill="#D4962E"/>
<path d="M31.0581 6.99249L33.3378 2.25969L35.9775 3.53117L33.6978 8.26398L31.0581 6.99249Z" fill="#D4962E"/>
</svg>
