<svg width="390" height="398" viewBox="0 0 390 398" fill="none" xmlns="http://www.w3.org/2000/svg">
<path d="M224.465 198.901L275.906 122.313L199.14 173.632L122.374 122.313L173.814 198.901L122.374 275.485L199.14 224.166L275.906 275.485L224.465 198.901Z" fill="#656669"/>
<path d="M183.974 212.177L275.906 273.632L122.374 120.461L183.974 212.177Z" fill="#111111"/>
<path d="M122.374 120.461L275.906 273.632L214.305 181.916L122.374 120.461Z" fill="black"/>
<path d="M183.974 181.916L122.374 273.632L275.906 120.461L183.974 181.916Z" fill="#111111"/>
<path d="M275.906 120.461L122.374 273.632L214.305 212.177L275.906 120.461Z" fill="black"/>
<path d="M222.43 197.049C222.441 201.658 221.085 206.166 218.532 210.004C215.98 213.841 212.346 216.835 208.092 218.606C203.837 220.378 199.152 220.847 194.631 219.955C190.109 219.062 185.954 216.849 182.691 213.594C179.428 210.339 177.204 206.189 176.301 201.669C175.398 197.15 175.856 192.464 177.617 188.205C179.378 183.946 182.363 180.305 186.195 177.744C190.026 175.182 194.531 173.815 199.14 173.815C202.195 173.81 205.221 174.408 208.045 175.573C210.869 176.739 213.436 178.449 215.598 180.607C217.761 182.764 219.478 185.327 220.65 188.148C221.822 190.969 222.427 193.994 222.43 197.049Z" fill="#111111"/>
<path d="M199.738 253.771C167.883 253.771 141.964 227.912 141.964 196.127C141.964 164.342 167.888 138.484 199.738 138.484C231.589 138.484 257.518 164.342 257.518 196.127C257.518 227.912 231.603 253.771 199.738 253.771ZM199.738 139.326C168.346 139.326 142.801 164.805 142.801 196.127C142.801 227.449 168.351 252.934 199.738 252.934C231.126 252.934 256.676 227.449 256.676 196.127C256.676 164.805 231.14 139.326 199.738 139.326Z" fill="#111111"/>
<path d="M199.739 263.58C162.457 263.58 132.127 233.32 132.127 196.127C132.127 158.935 162.462 128.675 199.739 128.675C237.015 128.675 267.35 158.935 267.35 196.127C267.35 233.32 237.025 263.58 199.739 263.58ZM199.739 132.604C164.656 132.604 136.08 161.096 136.08 196.113C136.08 231.131 164.656 259.637 199.739 259.637C234.822 259.637 263.402 231.149 263.402 196.127C263.402 161.105 234.845 132.618 199.739 132.618V132.604Z" fill="#111111"/>
<path d="M199.739 354.477C174.057 354.433 148.782 348.059 126.151 335.919C103.52 323.779 84.2311 306.247 69.9905 284.875C55.7499 263.504 46.9973 238.951 44.5072 213.391C42.0171 187.83 45.8663 162.05 55.7143 138.331C65.5622 114.613 81.1051 93.6878 100.967 77.408C120.83 61.1282 144.399 49.9956 169.589 44.9957C194.779 39.9957 220.814 41.2825 245.388 48.7421C269.962 56.2017 292.319 69.6042 310.479 87.7633C332.346 109.629 347.232 137.492 353.253 167.824C359.274 198.156 356.157 229.593 344.299 258.152C332.441 286.712 312.375 311.111 286.64 328.258C260.906 345.405 230.662 354.53 199.739 354.477ZM199.739 44.8125C164.203 44.8581 129.783 57.2222 102.341 79.7984C74.8987 102.375 56.1323 133.767 49.2384 168.627C42.3445 203.487 47.7496 239.659 64.5328 270.981C81.3161 302.303 108.439 326.838 141.283 340.406C174.126 353.974 210.657 355.736 244.653 345.392C278.65 335.048 308.008 313.238 327.728 283.676C347.448 254.115 356.309 218.631 352.803 183.269C349.296 147.907 333.638 114.854 308.496 89.7419C294.232 75.4421 277.278 64.1086 258.612 56.3955C239.945 48.6824 219.936 44.7425 199.739 44.8031V44.8125Z" fill="#111111"/>
<path d="M200.946 24.8808H198.546V43.4045H200.946V24.8808Z" fill="#111111"/>
<path d="M200.946 353.074H198.546V371.598H200.946V353.074Z" fill="#111111"/>
<path d="M171.76 34.5378L169.917 34.8634L171.873 45.9325L173.715 45.6069L171.76 34.5378Z" fill="#111111"/>
<path d="M227.612 350.564L225.77 350.889L227.725 361.958L229.568 361.633L227.612 350.564Z" fill="#111111"/>
<path d="M145.786 53.0594L141.931 42.5017L143.69 41.8609L147.544 52.4232L145.786 53.0594Z" fill="#111111"/>
<path d="M255.801 354.618L251.946 344.06L253.705 343.419L257.56 353.982L255.801 354.618Z" fill="#111111"/>
<path d="M121.335 64.6133L115.703 54.8836L117.322 53.9481L122.954 63.6824L121.335 64.6133Z" fill="#111111"/>
<path d="M282.169 342.531L276.537 332.801L278.156 331.865L283.788 341.6L282.169 342.531Z" fill="#111111"/>
<path d="M99.2704 80.2276L92.0293 71.6206L93.4607 70.4184L100.702 79.0301L99.2704 80.2276Z" fill="#111111"/>
<path d="M306.03 326.06L298.789 317.453L300.225 316.251L307.462 324.863L306.03 326.06Z" fill="#111111"/>
<path d="M80.2554 99.4295L71.625 92.2072L72.8272 90.7758L81.4576 97.9982L80.2554 99.4295Z" fill="#111111"/>
<path d="M326.664 305.708L318.033 298.48L319.235 297.054L327.866 304.276L326.664 305.708Z" fill="#111111"/>
<path d="M64.8705 121.63L55.1128 116.012L56.0483 114.394L65.8061 120.011L64.8705 121.63Z" fill="#111111"/>
<path d="M343.443 282.085L333.685 276.467L334.621 274.849L344.378 280.471L343.443 282.085Z" fill="#111111"/>
<path d="M53.5879 146.16L42.9976 142.315L43.6384 140.561L54.2241 144.406L53.5879 146.16Z" fill="#111111"/>
<path d="M355.853 255.918L345.267 252.073L345.908 250.319L356.494 254.164L355.853 255.918Z" fill="#111111"/>
<path d="M35.9735 168.487L35.6504 170.325L46.7442 172.276L47.0674 170.437L35.9735 168.487Z" fill="#111111"/>
<path d="M352.725 224.181L352.401 226.019L363.495 227.969L363.818 226.131L352.725 224.181Z" fill="#111111"/>
<path d="M44.5458 197.039H25.98V199.434H44.5458V197.039Z" fill="#111111"/>
<path d="M373.516 197.039H354.95V199.434H373.516V197.039Z" fill="#111111"/>
<path d="M46.7445 224.198L35.6523 226.158L35.9771 227.996L47.0692 226.036L46.7445 224.198Z" fill="#111111"/>
<path d="M363.521 168.463L352.429 170.422L352.753 172.26L363.846 170.301L363.521 168.463Z" fill="#111111"/>
<path d="M43.6433 255.918L43.0024 254.164L53.5881 250.319L54.2243 252.073L43.6433 255.918Z" fill="#111111"/>
<path d="M345.908 146.16L345.267 144.406L355.853 140.561L356.494 142.315L345.908 146.16Z" fill="#111111"/>
<path d="M56.0532 282.085L55.1177 280.467L64.8707 274.849L65.8063 276.467L56.0532 282.085Z" fill="#111111"/>
<path d="M334.621 121.63L333.685 120.011L343.443 114.394L344.378 116.007L334.621 121.63Z" fill="#111111"/>
<path d="M72.8272 305.703L71.625 304.276L80.2554 297.049L81.4576 298.48L72.8272 305.703Z" fill="#111111"/>
<path d="M319.24 99.425L318.033 97.9983L326.664 90.7712L327.866 92.2026L319.24 99.425Z" fill="#111111"/>
<path d="M93.4607 326.06L92.0293 324.858L99.2704 316.251L100.702 317.449L93.4607 326.06Z" fill="#111111"/>
<path d="M300.225 80.2276L298.789 79.0254L306.03 70.4184L307.466 71.6159L300.225 80.2276Z" fill="#111111"/>
<path d="M117.326 342.531L115.703 341.595L121.335 331.861L122.958 332.796L117.326 342.531Z" fill="#111111"/>
<path d="M278.156 64.6133L276.537 63.6778L282.169 53.9481L283.788 54.879L278.156 64.6133Z" fill="#111111"/>
<path d="M143.69 354.618L141.931 353.977L145.786 343.415L147.544 344.055L143.69 354.618Z" fill="#111111"/>
<path d="M253.705 53.0594L251.951 52.4185L255.801 41.8609L257.56 42.4971L253.705 53.0594Z" fill="#111111"/>
<path d="M171.866 350.539L169.919 361.61L171.762 361.933L173.708 350.863L171.866 350.539Z" fill="#111111"/>
<path d="M227.716 34.5175L225.77 45.5883L227.613 45.9122L229.559 34.8414L227.716 34.5175Z" fill="#111111"/>
<path d="M194.439 37.9314L193.639 37.9554L193.806 43.5079L194.606 43.4839L194.439 37.9314Z" fill="#111111"/>
<path d="M205.623 353.926L204.823 353.954L205.018 359.503L205.817 359.475L205.623 353.926Z" fill="#111111"/>
<path d="M189.329 37.2996L188.529 37.3555L188.917 42.908L189.717 42.852L189.329 37.2996Z" fill="#111111"/>
<path d="M211.057 353.631L210.259 353.687L210.647 359.226L211.445 359.17L211.057 353.631Z" fill="#111111"/>
<path d="M183.232 37.706L182.437 37.7898L183.018 43.3117L183.813 43.228L183.232 37.706Z" fill="#111111"/>
<path d="M216.455 353.164L215.659 353.248L216.241 358.77L217.036 358.686L216.455 353.164Z" fill="#111111"/>
<path d="M177.628 38.3938L176.835 38.5052L177.609 44.0035L178.401 43.892L177.628 38.3938Z" fill="#111111"/>
<path d="M221.879 352.478L221.087 352.59L221.863 358.092L222.655 357.981L221.879 352.478Z" fill="#111111"/>
<path d="M166.882 45.9164L165.727 40.4809L166.508 40.3172L167.664 45.748L166.882 45.9164Z" fill="#111111"/>
<path d="M232.609 350.556L231.827 350.723L232.984 356.153L233.767 355.987L232.609 350.556Z" fill="#111111"/>
<path d="M161.573 47.1514L160.226 41.7626L161.003 41.5709L162.35 46.9596L161.573 47.1514Z" fill="#111111"/>
<path d="M238.484 354.908L237.137 349.519L237.918 349.327L239.265 354.716L238.484 354.908Z" fill="#111111"/>
<path d="M156.311 48.5733L154.776 43.2361L155.548 43.0162L157.082 48.3535L156.311 48.5733Z" fill="#111111"/>
<path d="M243.943 353.467L242.409 348.125L243.176 347.905L244.715 353.247L243.943 353.467Z" fill="#111111"/>
<path d="M151.1 50.1778L149.383 44.8967L150.145 44.6488L151.862 49.9299L151.1 50.1778Z" fill="#111111"/>
<path d="M249.346 351.83L247.625 346.549L248.387 346.301L250.108 351.587L249.346 351.83Z" fill="#111111"/>
<path d="M140.869 53.9248L138.783 48.7746L139.527 48.4752L141.609 53.6254L140.869 53.9248Z" fill="#111111"/>
<path d="M259.964 348.008L257.878 342.858L258.622 342.559L260.708 347.709L259.964 348.008Z" fill="#111111"/>
<path d="M135.855 56.0625L133.591 50.9872L134.325 50.6644L136.589 55.735L135.855 56.0625Z" fill="#111111"/>
<path d="M265.166 345.819L262.902 340.744L263.636 340.421L265.9 345.492L265.166 345.819Z" fill="#111111"/>
<path d="M130.92 58.3732L128.483 53.382L129.199 53.0312L131.64 58.0223L130.92 58.3732Z" fill="#111111"/>
<path d="M270.292 343.452L267.851 338.456L268.566 338.105L271.008 343.101L270.292 343.452Z" fill="#111111"/>
<path d="M126.069 60.8524L123.459 55.9502L124.165 55.5759L126.775 60.4782L126.069 60.8524Z" fill="#111111"/>
<path d="M275.326 340.903L272.711 336L273.422 335.626L276.032 340.528L275.326 340.903Z" fill="#111111"/>
<path d="M116.644 66.316L113.692 61.6055L114.37 61.1798L117.322 65.8903L116.644 66.316Z" fill="#111111"/>
<path d="M285.116 335.299L282.169 330.588L282.848 330.163L285.799 334.873L285.116 335.299Z" fill="#111111"/>
<path d="M112.078 69.2911L108.967 64.6835L109.632 64.2391L112.742 68.842L112.078 69.2911Z" fill="#111111"/>
<path d="M289.859 332.24L286.749 327.637L287.413 327.192L290.523 331.795L289.859 332.24Z" fill="#111111"/>
<path d="M107.62 72.4204L104.351 67.9298L104.996 67.4573L108.271 71.9526L107.62 72.4204Z" fill="#111111"/>
<path d="M294.495 329.021L291.221 324.531L291.866 324.058L295.141 328.553L294.495 329.021Z" fill="#111111"/>
<path d="M103.275 75.7041L99.8506 71.3305L100.482 70.8393L103.906 75.213L103.275 75.7041Z" fill="#111111"/>
<path d="M299.009 325.644L295.585 321.266L296.216 320.774L299.641 325.153L299.009 325.644Z" fill="#111111"/>
<path d="M94.9437 82.7161L91.2202 78.5903L91.8143 78.0524L95.5378 82.1828L94.9437 82.7161Z" fill="#111111"/>
<path d="M307.677 318.426L303.954 314.296L304.548 313.763L308.271 317.893L307.677 318.426Z" fill="#111111"/>
<path d="M90.9676 86.4349L87.0991 82.4401L87.6745 81.8882L91.543 85.8829L90.9676 86.4349Z" fill="#111111"/>
<path d="M311.817 314.595L307.948 310.6L308.524 310.044L312.392 314.039L311.817 314.595Z" fill="#111111"/>
<path d="M87.1223 90.294L83.1182 86.4349L83.6748 85.8595L87.6789 89.7186L87.1223 90.294Z" fill="#111111"/>
<path d="M315.816 310.624L311.812 306.765L312.369 306.189L316.373 310.048L315.816 310.624Z" fill="#111111"/>
<path d="M83.4129 94.2793L79.2778 90.5606L79.8158 89.9712L83.9509 93.6853L83.4129 94.2793Z" fill="#111111"/>
<path d="M319.675 306.512L315.54 302.798L316.078 302.199L320.213 305.918L319.675 306.512Z" fill="#111111"/>
<path d="M76.4292 102.629L72.0415 99.2098L72.5327 98.5783L76.9204 101.998L76.4292 102.629Z" fill="#111111"/>
<path d="M326.958 297.9L322.571 294.481L323.062 293.854L327.45 297.274L326.958 297.9Z" fill="#111111"/>
<path d="M73.1594 106.979L68.6548 103.714L69.1272 103.069L73.6272 106.334L73.1594 106.979Z" fill="#111111"/>
<path d="M330.364 293.41L325.864 290.145L326.332 289.499L330.836 292.764L330.364 293.41Z" fill="#111111"/>
<path d="M70.0442 111.442L65.4272 108.336L65.8763 107.676L70.4885 110.782L70.0442 111.442Z" fill="#111111"/>
<path d="M333.615 288.807L328.998 285.701L329.447 285.037L334.064 288.143L333.615 288.807Z" fill="#111111"/>
<path d="M67.0833 116.012L62.3682 113.07L62.7892 112.392L67.509 115.334L67.0833 116.012Z" fill="#111111"/>
<path d="M336.702 284.092L331.982 281.145L332.408 280.471L337.128 283.414L336.702 284.092Z" fill="#111111"/>
<path d="M61.6619 125.442L56.7456 122.837L57.1198 122.131L62.0361 124.736L61.6619 125.442Z" fill="#111111"/>
<path d="M342.371 274.348L337.455 271.743L337.834 271.036L342.746 273.642L342.371 274.348Z" fill="#111111"/>
<path d="M59.1963 130.298L54.1958 127.861L54.5466 127.145L59.5471 129.577L59.1963 130.298Z" fill="#111111"/>
<path d="M344.949 269.338L339.944 266.901L340.295 266.186L345.3 268.618L344.949 269.338Z" fill="#111111"/>
<path d="M56.9045 135.233L51.8198 132.969L52.1473 132.239L57.2319 134.503L56.9045 135.233Z" fill="#111111"/>
<path d="M347.344 264.24L342.259 261.98L342.587 261.251L347.671 263.51L347.344 264.24Z" fill="#111111"/>
<path d="M54.7899 140.243L49.6304 138.161L49.9297 137.422L55.0893 139.504L54.7899 140.243Z" fill="#111111"/>
<path d="M349.561 259.061L344.401 256.98L344.701 256.236L349.865 258.318L349.561 259.061Z" fill="#111111"/>
<path d="M51.0854 150.473L45.7949 148.756L46.0428 147.994L51.3333 149.71L51.0854 150.473Z" fill="#111111"/>
<path d="M353.453 248.485L348.158 246.768L348.406 246.01L353.701 247.723L353.453 248.485Z" fill="#111111"/>
<path d="M49.5043 155.674L44.1577 154.145L44.3776 153.378L49.7289 154.907L49.5043 155.674Z" fill="#111111"/>
<path d="M349.967 240.778L349.747 241.547L355.098 243.079L355.318 242.31L349.967 240.778Z" fill="#111111"/>
<path d="M42.9036 158.802L42.7104 159.579L48.1123 160.922L48.3054 160.146L42.9036 158.802Z" fill="#111111"/>
<path d="M356.592 237.665L351.189 236.323L351.381 235.546L356.783 236.889L356.592 237.665Z" fill="#111111"/>
<path d="M41.6198 164.302L41.4536 165.084L46.8987 166.241L47.0648 165.458L41.6198 164.302Z" fill="#111111"/>
<path d="M357.874 232.178L352.429 231.023L352.592 230.242L358.042 231.397L357.874 232.178Z" fill="#111111"/>
<path d="M39.6262 175.373L39.5151 176.166L45.0277 176.938L45.1388 176.146L39.6262 175.373Z" fill="#111111"/>
<path d="M354.789 219.875L354.677 220.667L360.188 221.446L360.3 220.655L354.789 219.875Z" fill="#111111"/>
<path d="M38.9293 180.974L38.8457 181.769L44.3817 182.351L44.4653 181.556L38.9293 180.974Z" fill="#111111"/>
<path d="M355.113 214.13L355.029 214.925L360.565 215.507L360.649 214.712L355.113 214.13Z" fill="#111111"/>
<path d="M38.8861 186.545L38.8301 187.344L44.3966 187.734L44.4526 186.934L38.8861 186.545Z" fill="#111111"/>
<path d="M355.55 208.698L355.494 209.495L361.047 209.882L361.103 209.084L355.55 208.698Z" fill="#111111"/>
<path d="M38.112 192.214L38.084 193.014L43.647 193.209L43.6751 192.41L38.112 192.214Z" fill="#111111"/>
<path d="M355.868 203.295L355.84 204.094L361.403 204.289L361.431 203.489L355.868 203.295Z" fill="#111111"/>
<path d="M42.6807 203.616L37.1143 203.783L37.1383 204.583L42.7047 204.416L42.6807 203.616Z" fill="#111111"/>
<path d="M361.38 192.206L355.817 192.4L355.845 193.199L361.408 193.005L361.38 192.206Z" fill="#111111"/>
<path d="M43.9304 208.709L38.3774 209.097L38.4332 209.895L43.9862 209.507L43.9304 208.709Z" fill="#111111"/>
<path d="M361.074 186.57L355.521 186.958L355.577 187.756L361.13 187.368L361.074 186.57Z" fill="#111111"/>
<path d="M44.3923 214.124L38.8564 214.707L38.9402 215.503L44.4761 214.92L44.3923 214.124Z" fill="#111111"/>
<path d="M360.57 180.953L355.034 181.538L355.118 182.334L360.654 181.748L360.57 180.953Z" fill="#111111"/>
<path d="M45.0316 219.528L39.5195 220.304L39.6311 221.096L45.1432 220.32L45.0316 219.528Z" fill="#111111"/>
<path d="M359.861 175.385L354.349 176.161L354.461 176.953L359.973 176.177L359.861 175.385Z" fill="#111111"/>
<path d="M41.6178 232.178L41.4541 231.397L46.899 230.242L47.0627 231.023L41.6178 232.178Z" fill="#111111"/>
<path d="M352.597 166.237L352.429 165.451L357.874 164.3L358.042 165.081L352.597 166.237Z" fill="#111111"/>
<path d="M48.1094 235.542L42.709 236.891L42.9029 237.668L48.3033 236.318L48.1094 235.542Z" fill="#111111"/>
<path d="M351.381 160.932L351.189 160.156L356.592 158.813L356.783 159.59L351.381 160.932Z" fill="#111111"/>
<path d="M44.3776 243.101L44.1577 242.334L49.509 240.804L49.7289 241.571L44.3776 243.101Z" fill="#111111"/>
<path d="M349.987 155.674L349.767 154.907L355.118 153.378L355.338 154.145L349.987 155.674Z" fill="#111111"/>
<path d="M46.0428 248.485L45.7949 247.723L51.0901 246.01L51.3333 246.768L46.0428 248.485Z" fill="#111111"/>
<path d="M348.406 150.468L348.158 149.71L353.453 147.994L353.696 148.756L348.406 150.468Z" fill="#111111"/>
<path d="M49.9297 259.057L49.6304 258.318L54.7899 256.236L55.0893 256.98L49.9297 259.057Z" fill="#111111"/>
<path d="M344.701 140.243L344.401 139.499L349.566 137.417L349.865 138.161L344.701 140.243Z" fill="#111111"/>
<path d="M52.1473 264.235L51.8198 263.51L56.9092 261.251L57.2319 261.976L52.1473 264.235Z" fill="#111111"/>
<path d="M342.587 135.228L342.259 134.498L347.344 132.239L347.671 132.969L342.587 135.228Z" fill="#111111"/>
<path d="M54.5466 269.334L54.1958 268.618L59.1963 266.186L59.5471 266.901L54.5466 269.334Z" fill="#111111"/>
<path d="M340.295 130.293L339.944 129.577L344.949 127.14L345.3 127.861L340.295 130.293Z" fill="#111111"/>
<path d="M57.1245 274.348L56.7456 273.642L61.6619 271.036L62.0361 271.743L57.1245 274.348Z" fill="#111111"/>
<path d="M337.834 125.442L337.455 124.736L342.371 122.131L342.746 122.837L337.834 125.442Z" fill="#111111"/>
<path d="M62.7892 284.087L62.3682 283.409L67.088 280.467L67.5137 281.145L62.7892 284.087Z" fill="#111111"/>
<path d="M332.408 116.007L331.982 115.334L336.702 112.387L337.128 113.065L332.408 116.007Z" fill="#111111"/>
<path d="M65.8765 288.802L65.4321 288.143L70.0444 285.037L70.4934 285.701L65.8765 288.802Z" fill="#111111"/>
<path d="M329.447 111.442L328.998 110.778L333.615 107.672L334.064 108.336L329.447 111.442Z" fill="#111111"/>
<path d="M69.1272 293.41L68.6548 292.764L73.1594 289.499L73.6319 290.145L69.1272 293.41Z" fill="#111111"/>
<path d="M326.332 106.979L325.864 106.334L330.368 103.069L330.836 103.714L326.332 106.979Z" fill="#111111"/>
<path d="M72.5373 297.9L72.0415 297.269L76.4292 293.85L76.9204 294.481L72.5373 297.9Z" fill="#111111"/>
<path d="M323.062 102.624L322.571 101.998L326.958 98.5783L327.45 99.2098L323.062 102.624Z" fill="#111111"/>
<path d="M79.8158 306.512L79.2778 305.918L83.4129 302.199L83.9509 302.793L79.8158 306.512Z" fill="#111111"/>
<path d="M316.078 94.2747L315.54 93.6853L319.68 89.9666L320.213 90.5606L316.078 94.2747Z" fill="#111111"/>
<path d="M83.6748 310.619L83.1182 310.044L87.1223 306.189L87.6789 306.76L83.6748 310.619Z" fill="#111111"/>
<path d="M312.369 90.2893L311.812 89.7139L315.821 85.8548L316.377 86.4302L312.369 90.2893Z" fill="#111111"/>
<path d="M87.6792 314.591L87.0991 314.039L90.9676 310.044L91.543 310.596L87.6792 314.591Z" fill="#111111"/>
<path d="M308.524 86.4349L307.948 85.8782L311.817 81.8835L312.392 82.4401L308.524 86.4349Z" fill="#111111"/>
<path d="M91.8143 318.422L91.2202 317.888L94.9437 313.763L95.5424 314.296L91.8143 318.422Z" fill="#111111"/>
<path d="M304.548 82.7161L303.954 82.1782L307.677 78.0524L308.271 78.5903L304.548 82.7161Z" fill="#111111"/>
<path d="M100.482 325.639L99.8506 325.148L103.279 320.774L103.911 321.266L100.482 325.639Z" fill="#111111"/>
<path d="M296.216 75.6994L295.585 75.2083L299.014 70.8346L299.641 71.3258L296.216 75.6994Z" fill="#111111"/>
<path d="M105.001 329.021L104.351 328.549L107.625 324.058L108.271 324.526L105.001 329.021Z" fill="#111111"/>
<path d="M291.866 72.4204L291.221 71.9479L294.495 67.4573L295.141 67.9251L291.866 72.4204Z" fill="#111111"/>
<path d="M109.632 332.24L108.967 331.79L112.078 327.188L112.742 327.637L109.632 332.24Z" fill="#111111"/>
<path d="M287.413 69.2863L286.749 68.842L289.859 64.2344L290.523 64.6835L287.413 69.2863Z" fill="#111111"/>
<path d="M114.375 335.294L113.697 334.873L116.644 330.163L117.322 330.588L114.375 335.294Z" fill="#111111"/>
<path d="M282.848 66.3113L282.169 65.8903L285.116 61.1798L285.799 61.6055L282.848 66.3113Z" fill="#111111"/>
<path d="M124.165 340.903L123.459 340.528L126.069 335.622L126.78 335.996L124.165 340.903Z" fill="#111111"/>
<path d="M273.422 60.8525L272.716 60.4783L275.326 55.5714L276.037 55.9456L273.422 60.8525Z" fill="#111111"/>
<path d="M129.203 343.447L128.483 343.096L130.925 338.105L131.645 338.456L129.203 343.447Z" fill="#111111"/>
<path d="M268.566 58.3733L267.851 58.0224L270.292 53.0266L271.013 53.3775L268.566 58.3733Z" fill="#111111"/>
<path d="M134.325 345.814L133.591 345.492L135.86 340.416L136.589 340.744L134.325 345.814Z" fill="#111111"/>
<path d="M263.636 56.0578L262.906 55.735L265.17 50.6597L265.9 50.9871L263.636 56.0578Z" fill="#111111"/>
<path d="M139.527 348.003L138.783 347.704L140.869 342.554L141.613 342.853L139.527 348.003Z" fill="#111111"/>
<path d="M258.622 53.9201L257.878 53.6207L259.964 48.4752L260.708 48.7746L258.622 53.9201Z" fill="#111111"/>
<path d="M150.145 351.83L149.383 351.582L151.104 346.301L151.867 346.549L150.145 351.83Z" fill="#111111"/>
<path d="M248.387 50.1731L247.629 49.9299L249.346 44.6441L250.108 44.892L248.387 50.1731Z" fill="#111111"/>
<path d="M155.548 353.462L154.776 353.242L156.315 347.905L157.082 348.125L155.548 353.462Z" fill="#111111"/>
<path d="M243.181 48.5734L242.409 48.3536L243.943 43.0116L244.715 43.2315L243.181 48.5734Z" fill="#111111"/>
<path d="M161.007 354.908L160.23 354.711L161.573 349.323L162.349 349.519L161.007 354.908Z" fill="#111111"/>
<path d="M237.918 47.1514L237.142 46.9596L238.489 41.5662L239.265 41.7626L237.918 47.1514Z" fill="#111111"/>
<path d="M166.888 350.58L165.735 356.011L166.517 356.177L167.671 350.746L166.888 350.58Z" fill="#111111"/>
<path d="M232.609 45.9117L231.823 45.748L232.983 40.3172L233.769 40.4856L232.609 45.9117Z" fill="#111111"/>
<path d="M177.601 352.447L176.829 357.95L177.621 358.061L178.393 352.558L177.601 352.447Z" fill="#111111"/>
<path d="M221.839 38.3789L221.068 43.8822L221.86 43.9933L222.632 38.4899L221.839 38.3789Z" fill="#111111"/>
<path d="M183.02 353.155L182.441 358.677L183.237 358.76L183.815 353.238L183.02 353.155Z" fill="#111111"/>
<path d="M216.251 37.7089L215.672 43.2358L216.467 43.3191L217.046 37.7923L216.251 37.7089Z" fill="#111111"/>
<path d="M188.446 353.629L188.061 359.168L188.859 359.224L189.244 353.685L188.446 353.629Z" fill="#111111"/>
<path d="M210.619 37.2357L210.234 42.7747L211.032 42.8302L211.417 37.2912L210.619 37.2357Z" fill="#111111"/>
<path d="M193.888 353.933L193.695 359.482L194.495 359.51L194.688 353.961L193.888 353.933Z" fill="#111111"/>
<path d="M205.998 37.0121L205.776 42.5646L206.576 42.5966L206.798 37.0441L205.998 37.0121Z" fill="#111111"/>
<path d="M199.739 372.533C168.294 372.414 137.469 363.783 110.534 347.556C83.6001 331.329 61.562 308.112 46.7594 280.37C31.9569 252.627 24.9424 221.394 26.4604 189.986C27.9784 158.578 37.9723 128.167 55.3813 101.981C72.7903 75.7952 96.9647 54.8117 125.338 41.258C153.712 27.7043 185.226 22.0861 216.536 24.9998C247.845 27.9135 277.781 39.2504 303.167 57.807C328.552 76.3636 348.44 101.448 360.718 130.396C371.897 156.93 376.333 185.819 373.631 214.485C370.928 243.151 361.172 270.702 345.231 294.68C329.29 318.658 307.661 338.316 282.274 351.901C256.887 365.485 228.532 372.574 199.739 372.533ZM199.739 25.8164C168.631 25.935 138.136 34.4743 111.491 50.5277C84.846 66.5811 63.0446 89.5495 48.4012 116.995C33.7578 144.44 26.819 175.339 28.3212 206.41C29.8234 237.481 39.7106 267.566 56.9333 293.471C74.156 319.376 98.0714 340.134 126.141 353.542C154.211 366.95 185.387 372.508 216.361 369.625C247.335 366.742 276.95 355.527 302.063 337.169C327.176 318.811 346.85 293.996 358.996 265.358C370.058 239.108 374.449 210.527 371.777 182.167C369.105 153.807 359.452 126.55 343.681 102.828C327.91 79.1071 306.511 59.6594 281.394 46.2214C256.277 32.7834 228.224 25.7732 199.739 25.8164Z" fill="#111111"/>
<path d="M199.813 304.59H199.739C198.728 304.59 197.708 304.59 196.707 304.548C196.369 304.538 196.048 304.395 195.815 304.149C195.582 303.903 195.456 303.574 195.466 303.235C195.475 302.897 195.618 302.576 195.864 302.343C196.11 302.11 196.439 301.984 196.778 301.993C197.755 302.022 198.752 302.036 199.739 302.036H199.804C200.143 302.036 200.468 302.17 200.707 302.41C200.947 302.649 201.081 302.974 201.081 303.313C201.081 303.651 200.947 303.976 200.707 304.216C200.468 304.455 200.143 304.59 199.804 304.59H199.813ZM205.937 304.412C205.598 304.422 205.269 304.297 205.023 304.064C204.776 303.832 204.632 303.511 204.622 303.172C204.612 302.834 204.737 302.505 204.97 302.258C205.202 302.012 205.523 301.868 205.862 301.858C206.863 301.797 207.878 301.727 208.879 301.638C209.052 301.613 209.227 301.623 209.396 301.668C209.564 301.714 209.722 301.793 209.859 301.901C209.996 302.009 210.109 302.144 210.192 302.298C210.275 302.451 210.325 302.62 210.341 302.794C210.356 302.968 210.336 303.143 210.281 303.308C210.226 303.474 210.138 303.627 210.022 303.757C209.907 303.888 209.765 303.993 209.607 304.067C209.449 304.141 209.278 304.182 209.103 304.187C208.079 304.276 207.036 304.351 206.011 304.407L205.937 304.412ZM190.636 304.201H190.528C189.499 304.113 188.461 304.01 187.441 303.893C187.104 303.854 186.797 303.682 186.586 303.416C186.375 303.151 186.279 302.812 186.318 302.475C186.357 302.138 186.529 301.831 186.794 301.62C187.06 301.41 187.399 301.314 187.736 301.353C188.727 301.47 189.742 301.568 190.743 301.657C191.071 301.685 191.376 301.838 191.593 302.086C191.81 302.333 191.924 302.654 191.91 302.983C191.896 303.312 191.756 303.622 191.518 303.85C191.281 304.078 190.965 304.206 190.636 304.206V304.201ZM215.072 303.486C214.744 303.494 214.425 303.375 214.182 303.154C213.939 302.934 213.791 302.628 213.767 302.3C213.744 301.973 213.847 301.649 214.056 301.396C214.265 301.143 214.564 300.98 214.89 300.941C215.881 300.801 216.882 300.637 217.874 300.473C218.039 300.443 218.209 300.445 218.373 300.48C218.538 300.514 218.694 300.581 218.832 300.676C218.971 300.772 219.089 300.893 219.181 301.034C219.273 301.175 219.336 301.332 219.366 301.498C219.397 301.663 219.395 301.833 219.36 301.997C219.325 302.161 219.258 302.317 219.163 302.456C219.068 302.594 218.947 302.713 218.806 302.805C218.665 302.896 218.507 302.959 218.342 302.99C217.327 303.168 216.298 303.331 215.283 303.458L215.072 303.486ZM181.528 303.018C181.455 303.025 181.382 303.025 181.308 303.018C180.293 302.84 179.269 302.648 178.263 302.443C178.098 302.41 177.941 302.345 177.801 302.251C177.661 302.158 177.541 302.038 177.448 301.897C177.355 301.757 177.29 301.6 177.258 301.435C177.225 301.27 177.226 301.1 177.26 300.935C177.293 300.77 177.359 300.613 177.453 300.474C177.548 300.334 177.669 300.215 177.809 300.123C177.95 300.03 178.108 299.966 178.273 299.935C178.438 299.904 178.608 299.905 178.773 299.94C179.755 300.136 180.756 300.328 181.748 300.501C182.063 300.556 182.347 300.727 182.542 300.98C182.737 301.234 182.83 301.551 182.803 301.87C182.775 302.189 182.629 302.485 182.393 302.701C182.157 302.918 181.848 303.037 181.528 303.037V303.018ZM224.095 301.764C223.781 301.766 223.477 301.652 223.242 301.444C223.006 301.235 222.856 300.948 222.82 300.636C222.783 300.323 222.863 300.009 223.044 299.752C223.225 299.495 223.495 299.314 223.801 299.243C224.778 299.009 225.765 298.775 226.734 298.504C226.896 298.46 227.065 298.449 227.232 298.471C227.398 298.493 227.559 298.547 227.704 298.631C227.85 298.715 227.977 298.826 228.08 298.959C228.182 299.093 228.257 299.245 228.301 299.407C228.344 299.569 228.356 299.738 228.334 299.905C228.312 300.071 228.258 300.232 228.174 300.377C228.09 300.523 227.978 300.65 227.845 300.753C227.712 300.855 227.56 300.93 227.398 300.974C226.406 301.236 225.396 301.493 224.39 301.727C224.294 301.752 224.195 301.767 224.095 301.769V301.764ZM172.556 301.049C172.444 301.048 172.333 301.034 172.224 301.006C171.237 300.745 170.236 300.459 169.245 300.165C169.08 300.12 168.925 300.044 168.79 299.939C168.655 299.834 168.543 299.703 168.459 299.554C168.376 299.405 168.323 299.241 168.305 299.071C168.286 298.901 168.301 298.729 168.35 298.566C168.399 298.402 168.48 298.25 168.589 298.118C168.698 297.986 168.832 297.878 168.983 297.799C169.135 297.72 169.3 297.672 169.471 297.658C169.641 297.644 169.812 297.665 169.974 297.718C170.943 298.003 171.92 298.279 172.889 298.537C173.189 298.616 173.451 298.802 173.624 299.06C173.797 299.318 173.87 299.631 173.829 299.939C173.789 300.247 173.637 300.53 173.402 300.734C173.168 300.939 172.867 301.05 172.556 301.049ZM232.95 299.266C232.647 299.266 232.354 299.158 232.123 298.961C231.893 298.765 231.74 298.492 231.691 298.193C231.643 297.894 231.702 297.587 231.859 297.328C232.016 297.069 232.261 296.874 232.548 296.778C233.484 296.46 234.461 296.128 235.406 295.781C235.564 295.724 235.732 295.698 235.9 295.706C236.067 295.713 236.232 295.753 236.384 295.824C236.537 295.895 236.673 295.996 236.787 296.12C236.9 296.243 236.988 296.388 237.046 296.546C237.103 296.704 237.129 296.872 237.122 297.04C237.114 297.207 237.074 297.372 237.003 297.524C236.932 297.677 236.832 297.813 236.708 297.927C236.584 298.04 236.439 298.128 236.281 298.186C235.317 298.537 234.33 298.878 233.353 299.201C233.223 299.246 233.087 299.268 232.95 299.266ZM163.814 298.331C163.664 298.331 163.515 298.306 163.374 298.256C162.401 297.9 161.423 297.531 160.469 297.152C160.311 297.092 160.166 297.001 160.043 296.885C159.921 296.769 159.822 296.63 159.754 296.475C159.685 296.32 159.648 296.154 159.645 295.984C159.641 295.815 159.671 295.647 159.733 295.49C159.795 295.333 159.888 295.189 160.005 295.068C160.123 294.946 160.264 294.85 160.42 294.783C160.575 294.717 160.742 294.682 160.911 294.681C161.08 294.679 161.248 294.712 161.405 294.776C162.34 295.145 163.276 295.51 164.239 295.852C164.523 295.953 164.761 296.152 164.913 296.412C165.064 296.672 165.119 296.978 165.066 297.275C165.014 297.571 164.859 297.84 164.628 298.033C164.397 298.226 164.106 298.332 163.804 298.331H163.814ZM241.525 296.029C241.23 296.031 240.943 295.931 240.714 295.746C240.485 295.56 240.327 295.301 240.267 295.012C240.207 294.724 240.248 294.423 240.385 294.162C240.521 293.9 240.744 293.694 241.015 293.578C241.95 293.181 242.862 292.764 243.765 292.343C243.919 292.272 244.085 292.232 244.254 292.225C244.423 292.218 244.592 292.244 244.751 292.302C244.91 292.36 245.056 292.449 245.181 292.564C245.305 292.679 245.406 292.817 245.477 292.97C245.549 293.124 245.589 293.29 245.596 293.459C245.603 293.628 245.577 293.797 245.518 293.956C245.46 294.115 245.371 294.261 245.257 294.386C245.142 294.51 245.004 294.611 244.851 294.682C243.915 295.117 242.979 295.543 242.044 295.95C241.87 296.005 241.687 296.025 241.506 296.006L241.525 296.029ZM155.3 294.794C155.115 294.794 154.931 294.755 154.762 294.678C153.827 294.243 152.891 293.789 151.956 293.326C151.806 293.25 151.672 293.146 151.563 293.019C151.453 292.891 151.37 292.744 151.317 292.585C151.265 292.425 151.244 292.257 151.256 292.09C151.269 291.922 151.314 291.759 151.39 291.609C151.465 291.459 151.57 291.326 151.697 291.216C151.824 291.106 151.971 291.023 152.131 290.97C152.29 290.918 152.458 290.897 152.626 290.91C152.793 290.922 152.957 290.967 153.106 291.043C154.005 291.511 154.921 291.936 155.834 292.362C156.101 292.482 156.318 292.691 156.449 292.953C156.58 293.214 156.617 293.514 156.553 293.799C156.489 294.085 156.329 294.34 156.099 294.521C155.869 294.703 155.584 294.799 155.291 294.794H155.3ZM249.767 291.988C249.483 291.988 249.207 291.893 248.983 291.718C248.759 291.544 248.599 291.3 248.529 291.025C248.46 290.749 248.484 290.459 248.598 290.198C248.712 289.938 248.909 289.724 249.159 289.588C250.038 289.12 250.927 288.615 251.792 288.115C252.084 287.966 252.422 287.935 252.736 288.028C253.05 288.121 253.317 288.33 253.481 288.613C253.646 288.896 253.696 289.231 253.621 289.55C253.546 289.869 253.352 290.147 253.079 290.327C252.19 290.842 251.278 291.347 250.375 291.833C250.187 291.947 249.972 292.008 249.753 292.011L249.767 291.988ZM147.142 290.533C146.917 290.533 146.696 290.474 146.502 290.36C145.608 289.845 144.71 289.312 143.835 288.774C143.692 288.686 143.568 288.57 143.47 288.434C143.372 288.297 143.302 288.143 143.263 287.979C143.225 287.816 143.219 287.646 143.246 287.481C143.273 287.315 143.333 287.156 143.421 287.013C143.51 286.87 143.625 286.746 143.762 286.648C143.898 286.55 144.053 286.48 144.216 286.441C144.38 286.403 144.549 286.397 144.715 286.424C144.881 286.451 145.04 286.511 145.182 286.599C146.034 287.123 146.913 287.647 147.783 288.147C148.028 288.287 148.22 288.505 148.328 288.765C148.437 289.026 148.456 289.315 148.383 289.587C148.309 289.86 148.148 290.101 147.924 290.272C147.699 290.443 147.425 290.535 147.142 290.533ZM257.639 287.291C257.366 287.29 257.101 287.2 256.882 287.037C256.663 286.873 256.502 286.643 256.424 286.381C256.345 286.12 256.353 285.84 256.445 285.582C256.538 285.325 256.71 285.104 256.938 284.953C257.77 284.405 258.612 283.835 259.436 283.259C259.573 283.163 259.728 283.094 259.892 283.058C260.055 283.021 260.225 283.017 260.39 283.046C260.555 283.075 260.713 283.136 260.855 283.226C260.997 283.316 261.119 283.433 261.215 283.57C261.312 283.708 261.38 283.863 261.417 284.026C261.454 284.19 261.457 284.359 261.429 284.525C261.4 284.69 261.339 284.848 261.249 284.99C261.159 285.131 261.042 285.254 260.904 285.35C260.062 285.944 259.202 286.529 258.346 287.09C258.133 287.234 257.882 287.312 257.625 287.315L257.639 287.291ZM139.396 285.626C139.134 285.627 138.879 285.545 138.666 285.392C137.82 284.803 136.973 284.195 136.15 283.582C136.006 283.485 135.883 283.36 135.79 283.214C135.696 283.069 135.632 282.905 135.603 282.734C135.574 282.564 135.58 282.389 135.62 282.22C135.661 282.051 135.735 281.893 135.839 281.754C135.942 281.615 136.073 281.498 136.223 281.411C136.373 281.324 136.539 281.268 136.711 281.247C136.883 281.226 137.057 281.24 137.224 281.289C137.39 281.337 137.545 281.419 137.679 281.528C138.484 282.127 139.312 282.726 140.135 283.301C140.365 283.455 140.539 283.679 140.631 283.94C140.723 284.201 140.727 284.485 140.644 284.748C140.561 285.012 140.394 285.242 140.169 285.402C139.944 285.563 139.673 285.647 139.396 285.64V285.626ZM265.086 281.949C264.82 281.951 264.559 281.87 264.342 281.716C264.124 281.562 263.96 281.344 263.872 281.093C263.784 280.841 263.778 280.568 263.853 280.312C263.928 280.057 264.081 279.831 264.291 279.667C265.082 279.045 265.867 278.404 266.63 277.763C266.889 277.545 267.225 277.438 267.562 277.467C267.9 277.496 268.213 277.658 268.431 277.917C268.649 278.177 268.756 278.512 268.727 278.85C268.698 279.187 268.536 279.5 268.277 279.718C267.491 280.378 266.686 281.033 265.877 281.673C265.645 281.856 265.358 281.953 265.063 281.949H265.086ZM132.108 280.041C131.807 280.041 131.515 279.935 131.285 279.742C130.494 279.082 129.704 278.399 128.946 277.721C128.708 277.491 128.569 277.178 128.557 276.848C128.544 276.517 128.66 276.195 128.88 275.948C129.1 275.701 129.407 275.548 129.736 275.522C130.066 275.496 130.393 275.598 130.649 275.808C131.402 276.477 132.169 277.141 132.941 277.782C133.143 277.95 133.289 278.176 133.358 278.431C133.426 278.685 133.415 278.954 133.325 279.201C133.235 279.449 133.07 279.662 132.854 279.812C132.638 279.963 132.381 280.042 132.118 280.041H132.108ZM272.033 275.957C271.776 275.958 271.525 275.882 271.313 275.739C271.1 275.595 270.936 275.391 270.841 275.153C270.746 274.915 270.725 274.653 270.781 274.403C270.837 274.153 270.966 273.925 271.153 273.749C271.883 273.062 272.613 272.346 273.324 271.644C273.563 271.404 273.888 271.269 274.227 271.269C274.566 271.268 274.892 271.403 275.132 271.642C275.372 271.882 275.507 272.207 275.507 272.546C275.508 272.885 275.373 273.21 275.134 273.45C274.404 274.18 273.656 274.905 272.912 275.606C272.669 275.837 272.345 275.963 272.009 275.957H272.033ZM125.335 273.848C125.166 273.848 124.999 273.816 124.844 273.752C124.688 273.687 124.546 273.593 124.427 273.473C123.698 272.748 122.973 272.005 122.266 271.261C122.151 271.138 122.061 270.994 122.001 270.836C121.941 270.678 121.913 270.51 121.918 270.342C121.924 270.173 121.962 270.007 122.031 269.854C122.101 269.7 122.2 269.561 122.322 269.446C122.445 269.33 122.59 269.24 122.747 269.181C122.905 269.121 123.073 269.093 123.241 269.098C123.41 269.103 123.576 269.142 123.73 269.211C123.883 269.28 124.022 269.379 124.137 269.502C124.825 270.232 125.541 270.957 126.247 271.668C126.366 271.786 126.461 271.927 126.525 272.082C126.59 272.237 126.623 272.403 126.623 272.571C126.623 272.738 126.59 272.905 126.525 273.06C126.461 273.215 126.366 273.355 126.247 273.473C126.125 273.597 125.979 273.694 125.818 273.759C125.657 273.823 125.485 273.853 125.311 273.848H125.335ZM278.432 269.385C278.188 269.38 277.95 269.305 277.747 269.17C277.543 269.034 277.383 268.843 277.285 268.619C277.187 268.396 277.154 268.149 277.192 267.907C277.229 267.666 277.335 267.44 277.496 267.257C278.165 266.508 278.829 265.741 279.475 264.969C279.693 264.709 280.006 264.546 280.345 264.516C280.683 264.486 281.02 264.592 281.281 264.81C281.541 265.029 281.704 265.342 281.734 265.68C281.764 266.019 281.658 266.355 281.44 266.616C280.775 267.402 280.092 268.192 279.409 268.955C279.285 269.096 279.13 269.208 278.957 269.283C278.784 269.357 278.597 269.392 278.408 269.385H278.432ZM119.099 267.098C118.912 267.097 118.727 267.054 118.558 266.973C118.389 266.892 118.24 266.775 118.122 266.63C117.458 265.844 116.798 265.04 116.162 264.235C116.058 264.103 115.981 263.952 115.935 263.791C115.889 263.629 115.876 263.46 115.895 263.293C115.915 263.126 115.967 262.965 116.049 262.819C116.131 262.672 116.241 262.543 116.372 262.439C116.504 262.335 116.655 262.257 116.817 262.212C116.978 262.166 117.147 262.152 117.314 262.172C117.481 262.191 117.642 262.244 117.789 262.326C117.935 262.407 118.064 262.517 118.169 262.649C118.791 263.43 119.436 264.216 120.082 264.988C120.237 265.175 120.336 265.402 120.367 265.643C120.398 265.885 120.359 266.129 120.257 266.35C120.154 266.57 119.99 266.756 119.785 266.887C119.58 267.018 119.342 267.088 119.099 267.088V267.098ZM284.223 262.28C283.985 262.28 283.752 262.215 283.55 262.09C283.348 261.966 283.184 261.787 283.078 261.575C282.971 261.362 282.926 261.125 282.947 260.888C282.969 260.651 283.056 260.425 283.198 260.236C283.802 259.431 284.396 258.608 284.976 257.789C285.179 257.533 285.472 257.363 285.796 257.316C286.12 257.269 286.449 257.347 286.717 257.535C286.985 257.722 287.171 258.005 287.237 258.326C287.303 258.646 287.244 258.98 287.072 259.258C286.482 260.095 285.869 260.942 285.252 261.765C285.132 261.926 284.976 262.056 284.796 262.145C284.617 262.235 284.419 262.281 284.218 262.28H284.223ZM113.486 259.838C113.28 259.839 113.077 259.79 112.894 259.695C112.71 259.601 112.553 259.464 112.434 259.295C111.844 258.453 111.26 257.597 110.694 256.741C110.535 256.458 110.489 256.126 110.566 255.81C110.643 255.495 110.837 255.221 111.108 255.043C111.379 254.865 111.708 254.796 112.028 254.851C112.348 254.906 112.635 255.08 112.831 255.338C113.383 256.171 113.954 257.013 114.529 257.831C114.626 257.968 114.695 258.123 114.732 258.287C114.769 258.451 114.774 258.621 114.745 258.786C114.716 258.952 114.655 259.11 114.565 259.252C114.475 259.394 114.358 259.517 114.221 259.613C114.009 259.757 113.76 259.835 113.505 259.838H113.486ZM289.368 254.692C289.13 254.691 288.898 254.625 288.695 254.501C288.551 254.413 288.427 254.298 288.328 254.162C288.229 254.026 288.159 253.872 288.12 253.708C288.081 253.544 288.075 253.375 288.103 253.209C288.13 253.043 288.19 252.884 288.278 252.742C288.807 251.886 289.331 251.016 289.836 250.146C290.014 249.867 290.292 249.668 290.613 249.589C290.934 249.511 291.273 249.559 291.559 249.724C291.845 249.89 292.056 250.159 292.148 250.477C292.24 250.794 292.206 251.134 292.053 251.427C291.534 252.316 291.001 253.21 290.458 254.084C290.346 254.268 290.19 254.42 290.003 254.527C289.817 254.634 289.607 254.693 289.392 254.697L289.368 254.692ZM108.561 252.129C108.336 252.13 108.116 252.071 107.921 251.96C107.726 251.848 107.565 251.687 107.452 251.493C106.937 250.604 106.427 249.701 105.941 248.798C105.78 248.5 105.744 248.15 105.841 247.825C105.937 247.5 106.16 247.227 106.458 247.065C106.756 246.904 107.106 246.868 107.432 246.965C107.757 247.062 108.03 247.284 108.191 247.582C108.659 248.462 109.164 249.346 109.669 250.211C109.78 250.406 109.839 250.626 109.838 250.85C109.838 251.075 109.778 251.295 109.666 251.489C109.554 251.683 109.393 251.844 109.199 251.956C109.005 252.069 108.785 252.128 108.561 252.129ZM293.882 246.694C293.682 246.693 293.485 246.645 293.307 246.553C293.157 246.479 293.023 246.375 292.913 246.249C292.803 246.122 292.719 245.975 292.666 245.816C292.613 245.657 292.591 245.489 292.604 245.321C292.616 245.154 292.661 244.991 292.736 244.841C293.204 243.948 293.634 243.031 294.06 242.119C294.203 241.809 294.464 241.568 294.785 241.45C295.105 241.332 295.46 241.346 295.77 241.49C296.08 241.633 296.32 241.893 296.438 242.214C296.556 242.535 296.542 242.889 296.399 243.199C295.964 244.135 295.506 245.07 295.042 246.006C294.932 246.217 294.765 246.393 294.56 246.513C294.355 246.634 294.12 246.695 293.882 246.689V246.694ZM104.313 244.018C104.069 244.019 103.83 243.95 103.625 243.819C103.419 243.688 103.255 243.5 103.153 243.279C102.718 242.343 102.288 241.408 101.881 240.472C101.785 240.17 101.805 239.843 101.937 239.555C102.068 239.266 102.302 239.037 102.593 238.911C102.883 238.784 103.211 238.77 103.511 238.871C103.812 238.972 104.064 239.181 104.22 239.457C104.617 240.393 105.034 241.3 105.459 242.203C105.53 242.355 105.571 242.519 105.578 242.687C105.585 242.855 105.56 243.022 105.502 243.18C105.445 243.338 105.357 243.482 105.244 243.606C105.13 243.73 104.994 243.83 104.842 243.901C104.676 243.978 104.496 244.018 104.313 244.018ZM297.653 238.316C297.492 238.314 297.334 238.282 297.185 238.222C297.028 238.161 296.885 238.069 296.765 237.952C296.644 237.835 296.547 237.696 296.481 237.541C296.414 237.387 296.379 237.221 296.377 237.053C296.375 236.884 296.406 236.718 296.469 236.562C296.839 235.626 297.204 234.69 297.545 233.755C297.67 233.448 297.908 233.202 298.211 233.067C298.513 232.933 298.856 232.92 299.167 233.033C299.479 233.145 299.735 233.374 299.881 233.671C300.028 233.967 300.054 234.309 299.954 234.625C299.603 235.593 299.229 236.571 298.85 237.525C298.751 237.761 298.584 237.961 298.371 238.102C298.158 238.243 297.908 238.317 297.653 238.316ZM100.791 235.575C100.529 235.574 100.273 235.492 100.058 235.342C99.843 235.191 99.6793 234.979 99.5887 234.733C99.2378 233.769 98.8917 232.787 98.5689 231.814C98.4748 231.495 98.5085 231.151 98.6628 230.857C98.8171 230.562 99.0799 230.339 99.3958 230.234C99.7116 230.13 100.056 230.152 100.355 230.297C100.655 230.441 100.887 230.697 101.001 231.009C101.315 231.945 101.652 232.913 101.998 233.858C102.112 234.177 102.096 234.528 101.952 234.835C101.808 235.142 101.549 235.379 101.231 235.495C101.09 235.549 100.941 235.576 100.791 235.575ZM300.67 229.648C300.546 229.647 300.424 229.63 300.305 229.596C299.98 229.499 299.708 229.277 299.546 228.979C299.385 228.681 299.348 228.331 299.444 228.006C299.73 227.047 300.005 226.069 300.267 225.101C300.305 224.932 300.376 224.772 300.476 224.632C300.577 224.491 300.705 224.372 300.853 224.282C301 224.192 301.165 224.133 301.336 224.108C301.508 224.083 301.682 224.093 301.849 224.138C302.017 224.183 302.173 224.261 302.309 224.367C302.446 224.474 302.559 224.607 302.642 224.759C302.726 224.91 302.777 225.077 302.795 225.25C302.812 225.422 302.794 225.596 302.742 225.761C302.475 226.752 302.19 227.758 301.9 228.736C301.82 229 301.658 229.231 301.436 229.396C301.214 229.56 300.946 229.649 300.67 229.648ZM98.0216 226.841C97.7417 226.842 97.4692 226.751 97.2461 226.582C97.023 226.413 96.8616 226.175 96.7867 225.906C96.5201 224.914 96.2628 223.904 96.0243 222.907C95.9519 222.579 96.0114 222.235 96.1899 221.951C96.3685 221.666 96.6518 221.463 96.9788 221.385C97.3058 221.307 97.6504 221.36 97.9382 221.534C98.226 221.708 98.434 221.988 98.5175 222.313C98.7514 223.291 98.9852 224.273 99.2612 225.242C99.3484 225.57 99.3017 225.919 99.1316 226.213C98.9615 226.506 98.6817 226.721 98.3538 226.809C98.2446 226.832 98.1331 226.841 98.0216 226.837V226.841ZM302.906 220.76C302.818 220.759 302.73 220.752 302.644 220.737C302.311 220.668 302.02 220.471 301.833 220.187C301.646 219.904 301.58 219.558 301.647 219.226C301.848 218.244 302.04 217.247 302.213 216.26C302.288 215.941 302.481 215.663 302.754 215.482C303.027 215.301 303.359 215.232 303.682 215.288C304.004 215.345 304.293 215.522 304.489 215.785C304.685 216.047 304.773 216.375 304.735 216.7C304.557 217.715 304.365 218.735 304.155 219.741C304.097 220.027 303.942 220.285 303.716 220.471C303.49 220.656 303.207 220.759 302.915 220.76H302.906ZM96.0196 217.893C95.7195 217.891 95.4294 217.784 95.1996 217.591C94.9698 217.398 94.8147 217.131 94.7613 216.836C94.5835 215.83 94.4198 214.801 94.2654 213.781C94.2278 213.45 94.3204 213.118 94.5236 212.854C94.7268 212.59 95.0246 212.416 95.3541 212.368C95.6835 212.32 96.0187 212.402 96.2887 212.597C96.5587 212.792 96.7424 213.084 96.8008 213.412C96.9504 214.408 97.1095 215.409 97.2685 216.391C97.2981 216.557 97.2946 216.726 97.2584 216.89C97.2221 217.054 97.1537 217.209 97.0572 217.347C96.9606 217.484 96.8378 217.601 96.6959 217.691C96.5539 217.78 96.3956 217.841 96.2301 217.869C96.1638 217.883 96.0965 217.891 96.0289 217.893H96.0196ZM304.365 211.714H304.215C303.881 211.675 303.576 211.506 303.365 211.243C303.155 210.98 303.057 210.645 303.093 210.31C303.205 209.319 303.308 208.308 303.397 207.307C303.444 206.984 303.613 206.691 303.869 206.488C304.126 206.286 304.45 206.188 304.775 206.216C305.101 206.244 305.403 206.396 305.621 206.639C305.838 206.883 305.955 207.2 305.946 207.527C305.857 208.551 305.754 209.585 305.637 210.605C305.595 210.912 305.442 211.193 305.208 211.397C304.975 211.601 304.675 211.713 304.365 211.714ZM94.8314 208.804C94.5121 208.804 94.2044 208.685 93.9689 208.469C93.7334 208.253 93.5872 207.957 93.5591 207.639C93.4702 206.62 93.3907 205.581 93.3299 204.557C93.3113 204.217 93.4285 203.883 93.6557 203.63C93.8829 203.376 94.2015 203.223 94.5414 203.205C94.8813 203.186 95.2147 203.303 95.4683 203.531C95.7218 203.758 95.8747 204.076 95.8933 204.416C95.9541 205.417 96.0289 206.428 96.1131 207.424C96.1312 207.593 96.1151 207.764 96.066 207.927C96.0168 208.09 95.9356 208.241 95.827 208.372C95.7184 208.502 95.5847 208.61 95.4338 208.688C95.2829 208.767 95.1179 208.814 94.9484 208.827L94.8314 208.804ZM305.02 202.573H304.987C304.82 202.568 304.654 202.531 304.501 202.462C304.348 202.393 304.21 202.295 304.095 202.173C303.98 202.051 303.89 201.907 303.83 201.75C303.771 201.594 303.743 201.427 303.748 201.259C303.776 200.258 303.79 199.243 303.79 198.242V197.984C303.809 197.659 303.953 197.352 304.191 197.129C304.428 196.905 304.743 196.78 305.069 196.78C305.396 196.78 305.71 196.905 305.948 197.129C306.185 197.352 306.329 197.659 306.348 197.984V198.246C306.348 199.275 306.348 200.314 306.306 201.343C306.294 201.675 306.153 201.99 305.913 202.219C305.673 202.449 305.352 202.576 305.02 202.573ZM94.4292 199.65C94.09 199.65 93.7647 199.515 93.5245 199.276C93.2843 199.037 93.1487 198.712 93.1475 198.373V198.246C93.1475 197.259 93.1475 196.268 93.1896 195.281C93.2162 194.954 93.3671 194.65 93.6113 194.431C93.8555 194.212 94.1743 194.095 94.5022 194.104C94.83 194.113 95.142 194.247 95.3738 194.479C95.6056 194.711 95.7396 195.023 95.7483 195.351C95.7202 196.31 95.7108 197.283 95.7108 198.242V198.373C95.7096 198.712 95.574 199.037 95.3338 199.276C95.0936 199.515 94.7683 199.65 94.4292 199.65ZM304.875 193.148C304.549 193.148 304.235 193.024 303.997 192.8C303.76 192.577 303.617 192.271 303.598 191.946C303.537 190.944 303.462 189.929 303.373 188.938C303.362 188.61 303.476 188.29 303.693 188.044C303.91 187.798 304.213 187.645 304.54 187.616C304.866 187.586 305.192 187.683 305.449 187.886C305.706 188.09 305.876 188.384 305.923 188.709C306.016 189.728 306.091 190.767 306.152 191.796C306.171 192.134 306.055 192.467 305.83 192.72C305.605 192.973 305.288 193.127 304.95 193.148H304.875ZM94.8127 190.495H94.7005C94.5315 190.481 94.367 190.433 94.2167 190.354C94.0664 190.275 93.9333 190.168 93.8249 190.037C93.7166 189.907 93.6352 189.756 93.5856 189.594C93.5359 189.431 93.519 189.261 93.5357 189.092C93.6199 188.072 93.7228 187.039 93.8398 186.019C93.8782 185.681 94.0494 185.372 94.3156 185.16C94.5819 184.948 94.9214 184.851 95.2594 184.889C95.5975 184.928 95.9065 185.099 96.1183 185.365C96.3302 185.631 96.4276 185.971 96.3891 186.309C96.2722 187.305 96.1739 188.316 96.0851 189.312C96.0615 189.633 95.9172 189.934 95.6812 190.153C95.4452 190.373 95.135 190.495 94.8127 190.495ZM303.93 184.035C303.623 184.035 303.325 183.925 303.093 183.724C302.86 183.523 302.707 183.245 302.662 182.941C302.517 181.954 302.354 180.948 302.195 179.966C302.133 179.632 302.206 179.286 302.399 179.006C302.591 178.726 302.887 178.533 303.221 178.471C303.556 178.409 303.901 178.483 304.181 178.675C304.462 178.868 304.654 179.164 304.716 179.498C304.898 180.508 305.067 181.533 305.216 182.553C305.241 182.719 305.232 182.888 305.191 183.051C305.15 183.214 305.077 183.367 304.977 183.502C304.877 183.637 304.751 183.75 304.606 183.836C304.462 183.922 304.302 183.979 304.136 184.003L303.93 184.035ZM95.9868 181.407C95.9137 181.413 95.8401 181.413 95.767 181.407C95.6013 181.378 95.4428 181.318 95.3007 181.228C95.1585 181.138 95.0354 181.021 94.9385 180.884C94.8416 180.747 94.7727 180.592 94.7359 180.428C94.6991 180.264 94.695 180.094 94.7238 179.928C94.9016 178.918 95.0934 177.898 95.2992 176.888C95.3707 176.559 95.5689 176.271 95.851 176.087C96.1332 175.902 96.4765 175.837 96.8067 175.904C97.1369 175.971 97.4275 176.165 97.6155 176.445C97.8034 176.724 97.8737 177.067 97.8111 177.398C97.61 178.385 97.4182 179.381 97.2498 180.368C97.1932 180.661 97.036 180.925 96.8054 181.115C96.5749 181.305 96.2853 181.408 95.9868 181.407ZM302.181 175.036C301.893 175.036 301.613 174.939 301.388 174.761C301.162 174.583 301.003 174.333 300.936 174.053C300.702 173.085 300.469 172.103 300.193 171.13C300.149 170.967 300.138 170.798 300.16 170.632C300.181 170.465 300.236 170.305 300.319 170.159C300.403 170.014 300.515 169.886 300.648 169.784C300.781 169.681 300.933 169.606 301.095 169.563C301.258 169.519 301.427 169.508 301.593 169.53C301.76 169.551 301.92 169.606 302.066 169.689C302.211 169.773 302.339 169.885 302.441 170.018C302.544 170.151 302.619 170.303 302.662 170.465C302.934 171.457 303.191 172.467 303.425 173.464C303.465 173.626 303.472 173.795 303.447 173.96C303.421 174.126 303.363 174.284 303.276 174.427C303.189 174.57 303.075 174.695 302.94 174.793C302.805 174.892 302.652 174.963 302.489 175.003C302.388 175.026 302.284 175.037 302.181 175.036ZM97.9468 172.453C97.8348 172.453 97.7233 172.439 97.6147 172.411C97.4525 172.368 97.3003 172.294 97.1669 172.192C97.0335 172.09 96.9214 171.963 96.8372 171.818C96.7529 171.673 96.698 171.513 96.6757 171.347C96.6534 171.18 96.6641 171.011 96.7072 170.849C96.9692 169.857 97.2545 168.856 97.5492 167.869C97.6546 167.554 97.8784 167.292 98.1733 167.139C98.4682 166.985 98.8112 166.952 99.1298 167.047C99.4485 167.142 99.7179 167.357 99.8812 167.646C100.044 167.936 100.089 168.277 100.005 168.599C99.715 169.563 99.439 170.54 99.1817 171.504C99.1106 171.775 98.9519 172.015 98.7303 172.187C98.5086 172.359 98.2365 172.452 97.9562 172.453H97.9468ZM299.659 166.223C299.391 166.224 299.129 166.141 298.911 165.984C298.692 165.828 298.529 165.607 298.443 165.353C298.125 164.417 297.788 163.444 297.442 162.504C297.325 162.184 297.341 161.832 297.484 161.523C297.627 161.215 297.887 160.976 298.207 160.86C298.526 160.743 298.879 160.758 299.187 160.902C299.496 161.045 299.734 161.305 299.851 161.625C300.202 162.588 300.548 163.57 300.876 164.543C300.929 164.703 300.95 164.871 300.939 165.038C300.927 165.205 300.882 165.369 300.807 165.519C300.731 165.669 300.627 165.802 300.5 165.912C300.373 166.022 300.226 166.105 300.066 166.157C299.938 166.201 299.804 166.223 299.669 166.223H299.659ZM100.702 163.72C100.554 163.72 100.407 163.695 100.267 163.645C100.109 163.588 99.9638 163.501 99.8397 163.388C99.7156 163.274 99.615 163.138 99.5438 162.986C99.4725 162.834 99.4319 162.669 99.4244 162.501C99.4169 162.334 99.4425 162.166 99.4998 162.008C99.8506 161.04 100.22 160.067 100.599 159.108C100.653 158.941 100.74 158.787 100.855 158.655C100.971 158.523 101.112 158.417 101.27 158.342C101.428 158.266 101.6 158.225 101.776 158.219C101.951 158.213 102.125 158.243 102.288 158.307C102.451 158.371 102.599 158.468 102.724 158.591C102.848 158.715 102.945 158.863 103.01 159.025C103.075 159.188 103.106 159.362 103.101 159.537C103.095 159.713 103.054 159.885 102.98 160.043C102.61 160.979 102.25 161.915 101.904 162.873C101.815 163.121 101.652 163.336 101.437 163.487C101.222 163.639 100.965 163.72 100.702 163.72ZM296.385 157.686C296.136 157.687 295.891 157.615 295.683 157.479C295.474 157.342 295.31 157.148 295.211 156.919C294.809 155.983 294.392 155.08 293.967 154.178C293.823 153.867 293.808 153.513 293.925 153.192C294.043 152.871 294.283 152.609 294.593 152.466C294.904 152.322 295.258 152.307 295.579 152.424C295.9 152.542 296.161 152.782 296.305 153.092C296.74 154.028 297.166 154.963 297.578 155.899C297.645 156.053 297.681 156.219 297.684 156.387C297.687 156.555 297.657 156.723 297.596 156.879C297.534 157.036 297.442 157.178 297.325 157.299C297.208 157.42 297.068 157.516 296.913 157.583C296.746 157.65 296.566 157.682 296.385 157.677V157.686ZM104.215 155.235C104.001 155.233 103.79 155.178 103.602 155.074C103.415 154.97 103.256 154.821 103.141 154.64C103.026 154.459 102.957 154.252 102.942 154.038C102.927 153.825 102.966 153.61 103.055 153.415C103.495 152.48 103.948 151.544 104.407 150.609C104.564 150.313 104.83 150.091 105.148 149.989C105.467 149.887 105.813 149.914 106.112 150.063C106.411 150.213 106.64 150.473 106.75 150.789C106.859 151.105 106.841 151.452 106.699 151.755C106.231 152.643 105.805 153.56 105.38 154.477C105.277 154.699 105.112 154.888 104.906 155.021C104.7 155.153 104.46 155.224 104.215 155.225V155.235ZM292.357 149.458C292.127 149.458 291.9 149.395 291.702 149.278C291.504 149.16 291.341 148.991 291.23 148.789C290.762 147.909 290.252 147.025 289.752 146.165C289.656 146.019 289.591 145.855 289.56 145.684C289.53 145.512 289.534 145.336 289.574 145.166C289.614 144.996 289.688 144.837 289.792 144.696C289.896 144.556 290.027 144.439 290.178 144.351C290.329 144.263 290.496 144.208 290.669 144.187C290.842 144.166 291.017 144.181 291.185 144.23C291.352 144.279 291.507 144.362 291.641 144.474C291.776 144.585 291.885 144.723 291.964 144.878C292.479 145.762 292.989 146.67 293.48 147.568C293.582 147.762 293.632 147.979 293.626 148.198C293.62 148.417 293.557 148.631 293.445 148.819C293.332 149.007 293.173 149.163 292.982 149.271C292.792 149.38 292.577 149.438 292.357 149.439V149.458ZM108.448 147.082C108.224 147.08 108.005 147.02 107.812 146.907C107.618 146.795 107.458 146.633 107.346 146.439C107.235 146.245 107.176 146.025 107.175 145.802C107.175 145.578 107.233 145.358 107.344 145.164C107.859 144.27 108.392 143.377 108.935 142.502C109.121 142.231 109.404 142.043 109.726 141.975C110.047 141.907 110.383 141.965 110.663 142.138C110.942 142.31 111.145 142.583 111.229 142.901C111.314 143.218 111.272 143.556 111.115 143.845C110.586 144.696 110.067 145.571 109.562 146.441C109.45 146.635 109.289 146.796 109.095 146.908C108.901 147.021 108.682 147.08 108.458 147.082H108.448ZM287.633 141.613C287.421 141.614 287.212 141.561 287.025 141.461C286.838 141.36 286.679 141.215 286.562 141.038C286.01 140.205 285.434 139.363 284.859 138.549C284.678 138.271 284.612 137.933 284.674 137.607C284.737 137.281 284.924 136.992 285.196 136.801C285.467 136.61 285.803 136.532 286.131 136.583C286.459 136.635 286.754 136.811 286.955 137.076C287.544 137.913 288.133 138.774 288.699 139.63C288.826 139.823 288.897 140.046 288.907 140.277C288.917 140.507 288.865 140.736 288.756 140.939C288.647 141.142 288.485 141.311 288.287 141.43C288.089 141.549 287.863 141.612 287.633 141.613ZM113.388 139.345C113.126 139.345 112.871 139.263 112.658 139.111C112.38 138.917 112.191 138.621 112.131 138.288C112.071 137.954 112.147 137.611 112.34 137.333C112.93 136.496 113.542 135.649 114.155 134.821C114.362 134.562 114.662 134.394 114.991 134.351C115.319 134.309 115.652 134.395 115.918 134.593C116.185 134.79 116.364 135.083 116.419 135.41C116.474 135.737 116.4 136.073 116.213 136.346C115.61 137.155 115.016 137.979 114.44 138.797C114.323 138.966 114.167 139.103 113.986 139.198C113.804 139.294 113.602 139.344 113.397 139.345H113.388ZM282.254 134.199C282.062 134.201 281.872 134.16 281.698 134.079C281.524 133.998 281.37 133.879 281.248 133.731C280.626 132.95 279.985 132.164 279.335 131.392C279.137 131.13 279.048 130.802 279.085 130.476C279.122 130.15 279.282 129.851 279.534 129.64C279.785 129.429 280.108 129.322 280.435 129.342C280.763 129.361 281.07 129.506 281.295 129.746C281.959 130.532 282.618 131.336 283.255 132.136C283.404 132.325 283.497 132.552 283.523 132.791C283.55 133.03 283.508 133.271 283.404 133.488C283.3 133.705 283.136 133.887 282.933 134.016C282.729 134.144 282.494 134.212 282.254 134.213V134.199ZM119.001 132.061C118.758 132.061 118.52 131.991 118.315 131.86C118.111 131.729 117.947 131.543 117.844 131.323C117.741 131.103 117.703 130.858 117.734 130.617C117.765 130.375 117.864 130.148 118.019 129.961C118.683 129.175 119.366 128.385 120.044 127.622C120.269 127.368 120.585 127.213 120.924 127.192C121.262 127.171 121.596 127.285 121.85 127.51C122.104 127.734 122.259 128.051 122.28 128.39C122.301 128.728 122.187 129.061 121.962 129.316C121.293 130.064 120.629 130.836 119.984 131.603C119.863 131.749 119.712 131.866 119.54 131.947C119.368 132.027 119.181 132.068 118.992 132.066L119.001 132.061ZM276.238 127.281C276.063 127.281 275.889 127.246 275.728 127.177C275.567 127.108 275.422 127.006 275.302 126.878C274.61 126.149 273.899 125.424 273.193 124.717C273.074 124.599 272.98 124.458 272.915 124.303C272.851 124.148 272.817 123.982 272.817 123.814C272.817 123.646 272.85 123.48 272.914 123.325C272.978 123.169 273.072 123.028 273.19 122.909C273.309 122.791 273.45 122.696 273.605 122.632C273.76 122.567 273.926 122.534 274.094 122.534C274.262 122.534 274.428 122.566 274.583 122.63C274.738 122.695 274.88 122.789 274.998 122.907C275.728 123.632 276.453 124.376 277.164 125.124C277.335 125.307 277.448 125.535 277.49 125.781C277.533 126.027 277.503 126.28 277.403 126.509C277.304 126.738 277.14 126.933 276.931 127.07C276.722 127.207 276.478 127.281 276.229 127.281H276.238ZM125.204 125.297C124.952 125.296 124.706 125.22 124.497 125.08C124.288 124.94 124.124 124.741 124.028 124.508C123.931 124.276 123.905 124.02 123.952 123.772C124 123.525 124.12 123.297 124.296 123.118C125.021 122.393 125.77 121.667 126.518 120.961C126.641 120.846 126.786 120.756 126.943 120.696C127.101 120.636 127.269 120.608 127.437 120.613C127.606 120.619 127.772 120.657 127.925 120.726C128.079 120.796 128.218 120.894 128.333 121.017C128.449 121.14 128.539 121.285 128.599 121.442C128.658 121.6 128.686 121.768 128.681 121.936C128.676 122.105 128.638 122.271 128.568 122.424C128.499 122.578 128.4 122.717 128.277 122.832C127.547 123.52 126.818 124.236 126.111 124.937C125.866 125.175 125.536 125.306 125.195 125.302L125.204 125.297ZM269.638 120.905C269.324 120.905 269.021 120.79 268.786 120.582C268.033 119.913 267.266 119.254 266.494 118.608C266.355 118.504 266.239 118.372 266.153 118.22C266.066 118.069 266.012 117.902 265.992 117.729C265.973 117.556 265.988 117.381 266.039 117.215C266.089 117.048 266.172 116.894 266.284 116.76C266.396 116.627 266.534 116.518 266.69 116.44C266.845 116.362 267.015 116.316 267.189 116.305C267.362 116.295 267.536 116.32 267.7 116.379C267.864 116.438 268.014 116.529 268.141 116.648C268.927 117.308 269.717 117.986 270.48 118.669C270.675 118.841 270.813 119.068 270.876 119.321C270.939 119.574 270.922 119.839 270.83 120.082C270.737 120.326 270.573 120.535 270.358 120.682C270.143 120.829 269.889 120.907 269.628 120.905H269.638ZM131.958 119.104C131.696 119.105 131.439 119.026 131.224 118.876C131.008 118.726 130.844 118.514 130.753 118.267C130.663 118.021 130.65 117.753 130.718 117.499C130.785 117.245 130.93 117.018 131.131 116.849C131.916 116.19 132.721 115.53 133.53 114.889C133.797 114.699 134.127 114.618 134.452 114.663C134.777 114.709 135.073 114.877 135.277 115.134C135.482 115.391 135.58 115.716 135.552 116.043C135.523 116.37 135.371 116.674 135.125 116.892C134.335 117.518 133.549 118.159 132.786 118.805C132.555 118.999 132.261 119.106 131.958 119.104ZM262.495 115.123C262.221 115.124 261.954 115.037 261.732 114.875C260.928 114.277 260.1 113.683 259.277 113.107C259.128 113.016 259 112.894 258.9 112.751C258.8 112.608 258.73 112.446 258.695 112.275C258.66 112.104 258.66 111.928 258.695 111.757C258.731 111.586 258.801 111.424 258.901 111.281C259.001 111.138 259.129 111.017 259.278 110.926C259.426 110.834 259.592 110.774 259.765 110.749C259.938 110.723 260.114 110.734 260.282 110.779C260.451 110.824 260.608 110.903 260.745 111.012C261.587 111.601 262.439 112.209 263.262 112.822C263.478 112.982 263.637 113.207 263.718 113.463C263.798 113.72 263.796 113.995 263.711 114.25C263.626 114.505 263.463 114.727 263.244 114.884C263.026 115.04 262.764 115.124 262.495 115.123ZM139.232 113.514C138.956 113.521 138.685 113.437 138.46 113.277C138.235 113.116 138.068 112.886 137.984 112.622C137.901 112.359 137.906 112.075 137.997 111.814C138.089 111.553 138.263 111.329 138.493 111.175C139.335 110.586 140.196 110.001 141.052 109.435C141.335 109.259 141.675 109.2 142.001 109.272C142.326 109.343 142.611 109.539 142.794 109.817C142.977 110.096 143.044 110.435 142.981 110.762C142.918 111.089 142.729 111.378 142.455 111.568C141.618 112.12 140.776 112.691 139.957 113.266C139.747 113.422 139.494 113.508 139.232 113.514ZM254.884 109.983C254.648 109.983 254.416 109.917 254.215 109.791C253.355 109.262 252.48 108.743 251.61 108.242C251.465 108.158 251.337 108.046 251.235 107.913C251.133 107.78 251.058 107.627 251.015 107.465C250.972 107.303 250.961 107.134 250.983 106.967C251.005 106.801 251.06 106.641 251.144 106.495C251.229 106.35 251.34 106.223 251.474 106.121C251.607 106.019 251.759 105.944 251.922 105.901C252.084 105.858 252.253 105.847 252.419 105.869C252.586 105.891 252.746 105.946 252.892 106.03C253.78 106.54 254.678 107.073 255.558 107.616C255.701 107.703 255.826 107.818 255.924 107.954C256.023 108.09 256.094 108.244 256.133 108.408C256.172 108.571 256.179 108.741 256.152 108.906C256.126 109.072 256.067 109.231 255.979 109.374C255.863 109.56 255.701 109.713 255.51 109.819C255.318 109.926 255.103 109.982 254.884 109.983ZM146.96 108.579C146.679 108.578 146.407 108.485 146.184 108.314C145.962 108.143 145.802 107.903 145.728 107.632C145.655 107.361 145.673 107.074 145.779 106.814C145.884 106.554 146.073 106.336 146.314 106.194C147.203 105.679 148.111 105.174 149.013 104.683C149.162 104.592 149.327 104.532 149.499 104.507C149.671 104.482 149.847 104.493 150.015 104.538C150.183 104.583 150.34 104.662 150.477 104.769C150.613 104.877 150.726 105.012 150.809 105.164C150.892 105.317 150.943 105.486 150.959 105.659C150.975 105.832 150.955 106.007 150.902 106.172C150.848 106.338 150.761 106.49 150.646 106.621C150.532 106.752 150.391 106.858 150.234 106.933C149.355 107.4 148.471 107.901 147.601 108.406C147.406 108.52 147.185 108.579 146.96 108.579ZM246.848 105.515C246.65 105.516 246.454 105.47 246.277 105.38C245.379 104.912 244.458 104.491 243.545 104.065C243.393 103.994 243.257 103.894 243.144 103.77C243.03 103.647 242.942 103.502 242.885 103.344C242.828 103.186 242.802 103.019 242.809 102.851C242.817 102.684 242.857 102.519 242.928 102.367C242.999 102.215 243.099 102.079 243.223 101.965C243.347 101.852 243.491 101.764 243.649 101.707C243.807 101.649 243.974 101.624 244.142 101.631C244.309 101.639 244.474 101.679 244.626 101.75C245.562 102.18 246.497 102.634 247.433 103.097C247.69 103.226 247.896 103.438 248.017 103.699C248.139 103.96 248.169 104.254 248.102 104.534C248.036 104.814 247.876 105.063 247.65 105.241C247.424 105.419 247.145 105.516 246.857 105.515H246.848ZM155.085 104.337C154.793 104.339 154.509 104.24 154.281 104.059C154.052 103.877 153.893 103.622 153.83 103.337C153.766 103.052 153.802 102.754 153.932 102.492C154.062 102.231 154.277 102.021 154.543 101.899C155.478 101.464 156.414 101.039 157.349 100.632C157.504 100.556 157.673 100.512 157.845 100.503C158.017 100.494 158.189 100.52 158.351 100.58C158.513 100.639 158.662 100.731 158.787 100.849C158.913 100.967 159.013 101.11 159.082 101.268C159.151 101.426 159.187 101.597 159.188 101.769C159.189 101.942 159.156 102.113 159.089 102.272C159.022 102.431 158.924 102.575 158.801 102.695C158.677 102.815 158.53 102.909 158.369 102.971C157.433 103.368 156.526 103.785 155.618 104.21C155.451 104.289 155.27 104.332 155.085 104.337ZM238.451 101.768C238.291 101.768 238.133 101.738 237.984 101.68C237.048 101.31 236.113 100.95 235.144 100.608C234.986 100.551 234.841 100.463 234.717 100.35C234.594 100.236 234.493 100.099 234.422 99.947C234.351 99.7948 234.311 99.63 234.304 99.4622C234.296 99.2944 234.322 99.1267 234.379 98.9689C234.437 98.811 234.525 98.666 234.638 98.5421C234.752 98.4182 234.889 98.3179 235.041 98.2469C235.193 98.1759 235.358 98.1355 235.526 98.1282C235.693 98.1208 235.861 98.1466 236.019 98.2041C236.987 98.5549 237.97 98.9244 238.929 99.3033C239.205 99.4123 239.435 99.6144 239.579 99.8748C239.722 100.135 239.771 100.437 239.715 100.73C239.66 101.022 239.504 101.285 239.275 101.475C239.046 101.665 238.758 101.768 238.461 101.768H238.451ZM163.542 100.833C163.241 100.835 162.948 100.73 162.716 100.538C162.485 100.345 162.329 100.076 162.276 99.779C162.223 99.482 162.277 99.176 162.429 98.9152C162.58 98.6543 162.819 98.4554 163.103 98.3537C164.066 98.0029 165.053 97.6614 166.031 97.334C166.19 97.2809 166.358 97.2596 166.525 97.2714C166.693 97.2832 166.856 97.3278 167.006 97.4027C167.156 97.4777 167.29 97.5814 167.4 97.7081C167.51 97.8347 167.594 97.9818 167.647 98.1409C167.7 98.3 167.722 98.468 167.71 98.6353C167.698 98.8027 167.653 98.966 167.578 99.1161C167.503 99.2662 167.4 99.4 167.273 99.51C167.146 99.62 166.999 99.7039 166.84 99.7571C165.905 100.075 164.927 100.412 163.987 100.753C163.844 100.802 163.693 100.824 163.542 100.819V100.833ZM229.76 98.7888C229.637 98.7877 229.514 98.7704 229.395 98.7373C228.432 98.452 227.454 98.176 226.481 97.9187C226.319 97.8754 226.167 97.8006 226.034 97.6985C225.9 97.5964 225.789 97.4691 225.704 97.3238C225.62 97.1785 225.566 97.0181 225.544 96.8517C225.522 96.6853 225.533 96.5162 225.576 96.354C225.619 96.1918 225.694 96.0398 225.796 95.9065C225.898 95.7733 226.026 95.6614 226.171 95.5774C226.316 95.4933 226.477 95.4387 226.643 95.4167C226.809 95.3946 226.979 95.4056 227.141 95.4489C228.132 95.7108 229.138 95.9962 230.125 96.2862C230.42 96.3727 230.675 96.5629 230.841 96.822C231.007 97.081 231.074 97.3914 231.03 97.696C230.986 98.0006 230.833 98.2789 230.599 98.4797C230.366 98.6805 230.068 98.7902 229.76 98.7888ZM172.299 98.0637C171.988 98.0654 171.687 97.9537 171.453 97.7494C171.219 97.5451 171.067 97.2623 171.026 96.9541C170.985 96.6459 171.058 96.3334 171.232 96.0752C171.405 95.8171 171.666 95.6309 171.967 95.5518C172.963 95.2852 173.974 95.0279 174.975 94.794C175.14 94.7494 175.312 94.7385 175.482 94.7618C175.651 94.7851 175.814 94.8422 175.961 94.9297C176.108 95.0172 176.236 95.1333 176.337 95.2711C176.438 95.409 176.511 95.5657 176.55 95.7321C176.589 95.8984 176.595 96.071 176.567 96.2396C176.538 96.4082 176.476 96.5694 176.384 96.7136C176.292 96.8577 176.172 96.982 176.031 97.0789C175.891 97.1758 175.732 97.2435 175.564 97.2779C174.591 97.5118 173.604 97.7456 172.636 98.0216C172.525 98.0445 172.412 98.0539 172.299 98.0497V98.0637ZM220.849 96.5715C220.763 96.5715 220.676 96.562 220.592 96.5435C219.61 96.347 218.609 96.1552 217.617 95.9868C217.452 95.9579 217.294 95.8968 217.152 95.8069C217.01 95.717 216.888 95.6001 216.791 95.4628C216.695 95.3255 216.627 95.1706 216.59 95.0069C216.553 94.8432 216.55 94.6739 216.578 94.5087C216.607 94.3434 216.668 94.1855 216.758 94.0439C216.848 93.9022 216.965 93.7797 217.102 93.6833C217.24 93.5869 217.395 93.5184 217.558 93.4819C217.722 93.4453 217.891 93.4413 218.057 93.4702C219.067 93.6433 220.096 93.8351 221.102 94.0409C221.414 94.1015 221.693 94.2767 221.883 94.532C222.073 94.7874 222.161 95.1046 222.129 95.4214C222.098 95.7382 221.949 96.0317 221.712 96.2445C221.475 96.4573 221.167 96.5739 220.849 96.5715ZM181.266 96.0757C180.949 96.0711 180.645 95.9491 180.413 95.7332C180.18 95.5173 180.036 95.223 180.008 94.907C179.98 94.591 180.07 94.2759 180.261 94.0226C180.452 93.7693 180.73 93.5958 181.042 93.5357C182.052 93.3579 183.081 93.1942 184.106 93.0445C184.274 93.0147 184.447 93.0189 184.613 93.057C184.78 93.0951 184.937 93.1662 185.076 93.2662C185.215 93.3663 185.332 93.4931 185.42 93.6393C185.509 93.7854 185.568 93.9479 185.592 94.117C185.617 94.2862 185.608 94.4586 185.565 94.6241C185.521 94.7895 185.445 94.9446 185.341 95.0801C185.237 95.2157 185.107 95.3289 184.958 95.4132C184.809 95.4974 184.645 95.5509 184.475 95.5705C183.479 95.7155 182.473 95.8792 181.491 96.0383C181.417 96.053 181.342 96.0608 181.266 96.0617V96.0757ZM211.774 95.1401H211.629C210.628 95.0279 209.618 94.925 208.617 94.8408C208.45 94.8263 208.287 94.7791 208.138 94.7019C207.99 94.6246 207.857 94.5187 207.749 94.3904C207.641 94.262 207.56 94.1137 207.509 93.9538C207.459 93.7939 207.44 93.6256 207.454 93.4585C207.469 93.2914 207.516 93.1288 207.593 92.98C207.671 92.8311 207.777 92.699 207.905 92.591C208.033 92.4831 208.182 92.4015 208.341 92.3509C208.501 92.3003 208.67 92.2817 208.837 92.2961C209.857 92.3803 210.895 92.4832 211.919 92.6001C212.252 92.6261 212.562 92.7815 212.782 93.0331C213.002 93.2846 213.114 93.6123 213.095 93.9458C213.076 94.2794 212.927 94.5922 212.68 94.8172C212.433 95.0422 212.108 95.1615 211.774 95.1495V95.1401ZM190.383 94.8595C190.06 94.849 189.753 94.7168 189.523 94.4892C189.293 94.2616 189.158 93.9555 189.144 93.6324C189.13 93.3093 189.239 92.9929 189.449 92.7468C189.659 92.5007 189.954 92.343 190.276 92.3055C191.3 92.2166 192.338 92.1417 193.368 92.0809C193.536 92.0685 193.706 92.0897 193.867 92.1434C194.027 92.1971 194.175 92.2822 194.303 92.3938C194.43 92.5053 194.534 92.6411 194.609 92.7932C194.683 92.9452 194.726 93.1106 194.736 93.2796C194.746 93.4486 194.722 93.618 194.666 93.7777C194.61 93.9374 194.523 94.0844 194.409 94.2101C194.296 94.3358 194.159 94.4377 194.006 94.5098C193.852 94.5819 193.686 94.6229 193.517 94.6303C192.516 94.6911 191.501 94.7659 190.5 94.8548L190.383 94.8595ZM202.625 94.4853H202.592C201.656 94.4572 200.721 94.4478 199.762 94.4478H199.566C199.391 94.4584 199.216 94.4331 199.052 94.3736C198.887 94.3141 198.737 94.2216 198.61 94.1017C198.482 93.9819 198.381 93.8373 198.312 93.6768C198.242 93.5163 198.206 93.3433 198.206 93.1685C198.206 92.9937 198.242 92.8207 198.312 92.6602C198.381 92.4997 198.482 92.3551 198.61 92.2352C198.737 92.1154 198.887 92.0229 199.052 91.9634C199.216 91.9038 199.391 91.8786 199.566 91.8891H199.739C200.674 91.8891 201.671 91.8891 202.634 91.9312C202.973 91.9362 203.296 92.0755 203.532 92.3185C203.768 92.5615 203.897 92.8883 203.892 93.227C203.887 93.5656 203.748 93.8885 203.505 94.1245C203.262 94.3604 202.935 94.4902 202.597 94.4853H202.625Z" fill="#111111"/>
<path d="M388.756 197.437H381.959V203.724H389.532V205.595H379.709V188.171H389.149V190.042H381.959V195.552H388.756V197.437Z" fill="#111111"/>
<path d="M390 206.077H379.241V187.707H389.616V190.514H382.427V195.089H389.223V197.896H382.427V203.252H390V206.077ZM380.177 205.141H389.064V204.182H381.491V196.969H388.288V196.034H381.491V189.593H388.676V188.657H380.172L380.177 205.141Z" fill="#111111"/>
<path d="M193.812 17.9063V0.467804H196.277L201.89 9.28998C203.055 11.1135 204.1 13.0103 205.02 14.9687H205.071C204.861 12.6299 204.809 10.5155 204.809 7.80246V0.467804H206.938V17.9063H204.655L199.103 9.05609C197.896 7.18355 196.802 5.24037 195.828 3.23701H195.749C195.88 5.43554 195.931 7.53116 195.931 10.4313V17.9063H193.812Z" fill="#111111"/>
<path d="M207.405 18.3741H204.416L198.71 9.30398C197.746 7.77436 196.965 6.44589 196.324 5.24372C196.385 6.78737 196.408 8.41989 196.408 10.4547V18.3741H193.344V0H196.534L202.274 9.04203C203.093 10.3331 203.813 11.5633 204.449 12.7842C204.365 11.161 204.342 9.56125 204.342 7.7884V0H207.405V18.3741ZM204.912 17.4385H206.47V0.935543H205.277V7.76501C205.277 10.305 205.324 12.4942 205.534 14.8892L205.562 15.2073L204.795 15.5862L204.594 15.1511C203.68 13.2147 202.641 11.3397 201.483 9.53786L196.02 0.935543H194.28V17.4385H195.473V10.4547C195.473 7.54048 195.421 5.46825 195.29 3.28843V2.93293L196.104 2.65694L196.282 3.03584C197.241 5.02483 198.322 6.95261 199.519 8.80814L204.912 17.4385Z" fill="#111111"/>
<path d="M195.641 394.14C196.865 394.871 198.261 395.263 199.687 395.276C201.993 395.276 203.345 394.06 203.345 392.301C203.345 390.669 202.409 389.738 200.07 388.835C197.217 387.825 195.454 386.351 195.454 383.891C195.454 381.173 197.708 379.157 201.104 379.157C202.445 379.11 203.777 379.405 204.973 380.013L204.346 381.847C203.326 381.3 202.187 381.015 201.029 381.019C198.644 381.019 197.755 382.422 197.755 383.634C197.755 385.261 198.817 386.066 201.231 386.997C204.187 388.134 205.688 389.556 205.688 392.119C205.688 394.809 203.691 397.138 199.57 397.138C197.881 397.138 196.043 396.67 195.107 396.025L195.641 394.14Z" fill="#111111"/>
<path d="M199.533 397.606C197.807 397.606 195.865 397.138 194.813 396.413L194.523 396.221L195.37 393.415L195.889 393.733C197.038 394.418 198.349 394.786 199.687 394.799C201.656 394.799 202.877 393.864 202.877 392.292C202.877 391.099 202.41 390.22 199.884 389.261C196.576 388.091 194.967 386.333 194.967 383.882C194.967 380.818 197.484 378.68 201.086 378.68C202.509 378.635 203.92 378.958 205.183 379.615L205.52 379.803L204.585 382.534L204.117 382.268C203.166 381.756 202.101 381.49 201.02 381.496C198.934 381.496 198.214 382.651 198.214 383.643C198.214 384.929 198.985 385.64 201.39 386.571C204.725 387.853 206.147 389.518 206.147 392.128C206.119 394.65 204.416 397.606 199.533 397.606ZM195.622 395.814C196.847 396.382 198.182 396.674 199.533 396.67C202.966 396.67 205.183 394.884 205.183 392.119C205.183 389.897 204.019 388.583 201.025 387.441C198.635 386.506 197.25 385.598 197.25 383.643C197.25 382.16 198.424 380.56 200.992 380.56C202.041 380.557 203.079 380.775 204.037 381.201L204.36 380.266C203.325 379.829 202.209 379.618 201.086 379.648C198.036 379.648 195.903 381.402 195.903 383.914C195.903 385.949 197.269 387.38 200.206 388.419C202.377 389.252 203.813 390.229 203.813 392.325C203.813 394.42 202.194 395.768 199.687 395.768C198.376 395.751 197.087 395.431 195.922 394.832L195.622 395.814Z" fill="#111111"/>
<path d="M2.96553 193.087L4.62144 199.453C4.9863 200.857 5.3231 202.143 5.55698 203.439H5.63651C5.92185 202.171 6.33349 200.824 6.7498 199.477L8.79864 193.087H10.7165L12.6624 199.35C13.1302 200.852 13.4951 202.157 13.7804 203.439H13.8553C14.1028 202.068 14.4229 200.711 14.8142 199.374L16.6058 193.087H18.8604L14.8142 205.609H12.742L10.8241 199.636C10.3812 198.284 10.0081 196.91 9.70612 195.519H9.65466C9.35581 196.92 8.9747 198.303 8.5133 199.659L6.49253 205.609H4.41562L0.631348 193.087H2.96553Z" fill="#111111"/>
<path d="M15.1558 206.077H12.4006L10.3752 199.776C10.1179 198.957 9.9074 198.2 9.68287 197.437C9.44899 198.288 9.2151 199.079 8.95783 199.818L6.82479 206.091H4.06961L0 192.619H3.32586L5.07532 199.336C5.27646 200.103 5.46825 200.838 5.63665 201.558C5.84715 200.819 6.07635 200.075 6.30556 199.341L8.45731 192.619H11.0628L13.0976 199.21C13.3502 200.029 13.5654 200.782 13.7618 201.488C13.9443 200.726 14.1501 199.972 14.3512 199.247L16.2223 192.619H19.4967L15.1558 206.077ZM13.0836 205.141H14.4869L18.2291 193.55H16.9614L15.2681 199.505C14.881 200.822 14.5687 202.161 14.3325 203.513L14.267 203.906H13.4063L13.3221 203.542C13.0462 202.311 12.6953 201.025 12.2182 199.486L10.3752 193.555H9.14026L7.19433 199.636C6.79205 200.945 6.37105 202.302 6.09039 203.556L6.01087 203.92H5.14549L5.08 203.532C4.85079 202.265 4.514 200.978 4.14446 199.612L2.60081 193.555H1.25831L4.76192 205.146H6.16523L8.07842 199.509C8.53328 198.171 8.9097 196.808 9.20575 195.426L9.28527 195.056H10.0945L10.174 195.426C10.4722 196.8 10.8407 198.159 11.278 199.495L13.0836 205.141Z" fill="#111111"/>
<path d="M337.146 53.1856L344.023 46.3561L345.159 47.4928L344.28 53.5364C344.102 54.7754 343.84 56.0007 343.494 57.2038H343.527C344.374 56.1794 345.277 55.2019 346.231 54.2755L349.112 51.4174L350.09 52.3997L343.213 59.2292L342.161 58.1767L343.097 52.1471C343.279 50.8686 343.543 49.6031 343.887 48.3582H343.84C343.036 49.2937 342.231 50.1217 341.09 51.2584L338.152 54.1773L337.146 53.1856Z" fill="#111111"/>
<path d="M352.405 62.0405L349.271 58.9018L346.792 61.3669L350.282 64.8612L349.538 65.6003L345.01 61.0629L351.886 54.2334L356.236 58.5931L355.507 59.3321L352.195 56.0156L350.024 58.1721L353.154 61.3108L352.405 62.0405Z" fill="#111111"/>
<path d="M53.0315 64.6928L46.188 57.8306L47.3294 56.6986L53.3823 57.5967C54.6252 57.7696 55.854 58.0322 57.059 58.3825V58.3498C56.0342 57.5027 55.0552 56.6017 54.1261 55.6507L51.2633 52.7786L52.2456 51.801L59.0938 58.6632L58.0366 59.711L51.993 58.7755C50.7107 58.5968 49.4418 58.3327 48.1947 57.9849V58.0317C49.1303 58.8409 49.9629 59.6408 51.0996 60.7775L54.0278 63.7104L53.0315 64.6928Z" fill="#111111"/>
<path d="M62.2509 55.5386L53.3633 50.7158L54.4672 49.6213L58.8877 52.1379C59.9822 52.7553 61.0534 53.3962 61.858 53.9107H61.8814C61.2571 52.9291 60.6841 51.9158 60.1647 50.8749L57.779 46.3094L58.8736 45.2242L63.3315 47.7268C64.3315 48.2735 65.3027 48.8715 66.241 49.5183C65.661 48.5828 65.1277 47.6098 64.5243 46.5012L62.1387 41.9825L63.2052 40.9207L67.7847 50.0516L66.6901 51.1368L62.1059 48.5781C61.1505 48.065 60.2287 47.4916 59.3461 46.8614H59.318C59.9141 47.7817 60.453 48.7378 60.9318 49.7242L63.3409 54.4393L62.2509 55.5386Z" fill="#111111"/>
<path d="M69.4499 341.174C69.1686 340.305 68.688 339.514 68.0466 338.863C66.9801 337.797 65.8808 337.647 65.1885 338.339C64.4962 339.032 64.6085 339.771 65.3382 341.216C66.2737 342.928 66.4842 344.322 65.5159 345.286C64.4447 346.348 62.6111 346.095 61.044 344.528C60.4157 343.934 59.9228 343.211 59.5986 342.409L60.609 341.979C60.8722 342.682 61.2838 343.32 61.8159 343.85C62.9151 344.949 63.8928 344.813 64.3605 344.345C65.0061 343.705 64.8283 342.9 64.0892 341.422C63.1537 339.612 63.0414 338.358 64.0518 337.357C65.0622 336.356 66.952 336.314 68.8512 338.218C69.5697 338.918 70.1227 339.77 70.4696 340.711L69.4499 341.174Z" fill="#111111"/>
<path d="M63.1866 332.735L58.3499 341.623L57.2506 340.538L59.7766 336.122C60.394 335.032 61.0349 333.966 61.5541 333.161H61.5307C60.5466 333.785 59.5302 334.357 58.4855 334.873L53.9434 337.24L52.8582 336.103L55.3702 331.659C55.9166 330.66 56.5163 329.69 57.1664 328.755H57.1383C56.2028 329.335 55.2251 329.868 54.1165 330.467L49.5838 332.824L48.522 331.758L57.6809 327.216L58.7662 328.306L56.2028 332.88C55.69 333.836 55.115 334.756 54.4814 335.636L54.5094 335.659C55.4295 335.065 56.3856 334.529 57.3722 334.054L62.0967 331.65L63.1866 332.735Z" fill="#111111"/>
<path d="M335.888 65.2494L324.979 76.1345L326.313 77.4629L337.221 66.5779L335.888 65.2494Z" fill="#111111"/>
<path d="M79.133 321.406L68.2246 332.286L69.5578 333.615L80.4662 322.73L79.133 321.406Z" fill="#111111"/>
<path d="M323.941 319.039L322.613 320.367L333.521 331.248L334.85 329.924L323.941 319.039Z" fill="#111111"/>
<path d="M65.8574 64.2157L76.7659 75.096L78.0943 73.7676L67.1859 62.8872L65.8574 64.2157Z" fill="#111111"/>
<path d="M347.676 329.363C346.798 329.642 345.997 330.123 345.337 330.766C344.27 331.823 344.121 332.922 344.813 333.615C345.505 334.307 346.249 334.195 347.699 333.465C349.416 332.553 350.81 332.319 351.773 333.287C352.84 334.358 352.592 336.187 351.016 337.75C350.421 338.378 349.696 338.87 348.892 339.191L348.49 338.199C349.192 337.938 349.83 337.53 350.361 337.001C351.446 335.893 351.296 334.925 350.829 334.457C350.192 333.816 349.383 333.989 347.9 334.733C346.085 335.645 344.832 335.776 343.826 334.765C342.82 333.755 342.778 331.875 344.687 329.98C345.39 329.262 346.245 328.71 347.189 328.366L347.676 329.363Z" fill="#111111"/>
<path d="M339.56 341.679L342.704 338.555L340.234 336.085L336.73 339.565L335.991 338.821L340.538 334.302L347.386 341.165L343.017 345.501L342.273 344.748L345.599 341.445L343.433 339.275L340.29 342.409L339.56 341.679Z" fill="#111111"/>
<path d="M217.425 197.03C217.423 195.686 217.266 194.348 216.957 193.04L199.799 50.9028L182.637 193.04C182.328 194.348 182.171 195.686 182.169 197.03C182.169 197.343 182.169 197.662 182.192 197.966C182.216 198.27 182.169 198.592 182.169 198.901C182.174 200.245 182.331 201.583 182.637 202.891L199.804 345.028L216.966 202.896C217.275 201.587 217.432 200.246 217.434 198.901C217.434 198.588 217.434 198.27 217.406 197.966C217.378 197.662 217.425 197.343 217.425 197.03ZM199.799 206.353C198.146 206.33 196.537 205.818 195.174 204.883C193.811 203.948 192.755 202.631 192.138 201.097C191.522 199.563 191.373 197.881 191.71 196.263C192.047 194.644 192.854 193.162 194.032 192.001C195.209 190.841 196.703 190.054 198.326 189.741C199.949 189.427 201.629 189.601 203.154 190.239C204.679 190.877 205.981 191.953 206.896 193.329C207.811 194.705 208.299 196.322 208.299 197.975C208.269 200.209 207.36 202.341 205.769 203.909C204.178 205.477 202.033 206.355 199.799 206.353Z" fill="#1A1A1A"/>
<path d="M198.662 216.073C200.009 216.071 201.351 215.914 202.662 215.605L345.136 198.485L202.667 181.364C201.354 181.056 200.011 180.899 198.662 180.897C198.344 180.897 198.031 180.897 197.727 180.925C197.423 180.953 197.1 180.897 196.791 180.897C195.445 180.899 194.103 181.056 192.792 181.364L50.2993 198.49L192.769 215.61C194.079 215.918 195.421 216.075 196.768 216.078C197.086 216.078 197.399 216.078 197.704 216.05C198.008 216.022 198.335 216.073 198.662 216.073ZM189.307 198.49C189.319 196.827 189.823 195.205 190.756 193.828C191.688 192.452 193.007 191.382 194.547 190.754C196.086 190.126 197.777 189.968 199.407 190.3C201.036 190.631 202.53 191.438 203.702 192.618C204.873 193.798 205.669 195.298 205.989 196.93C206.309 198.562 206.139 200.251 205.5 201.786C204.861 203.321 203.782 204.633 202.398 205.555C201.015 206.478 199.39 206.97 197.727 206.97C195.491 206.949 193.353 206.047 191.778 204.459C190.203 202.871 189.319 200.726 189.316 198.49H189.307Z" fill="#1A1A1A"/>
<path d="M199.435 206.788C198.319 206.789 197.214 206.571 196.183 206.145C195.152 205.719 194.215 205.094 193.425 204.306C192.636 203.518 192.009 202.583 191.581 201.553C191.153 200.522 190.932 199.418 190.931 198.302H51.9229L194.392 215.428C196.974 216.032 199.66 216.045 202.248 215.467C204.836 214.888 207.26 213.732 209.339 212.086C211.418 210.44 213.099 208.345 214.255 205.958C215.411 203.571 216.014 200.954 216.017 198.302H207.939C207.938 199.418 207.717 200.522 207.289 201.553C206.861 202.583 206.234 203.518 205.444 204.306C204.654 205.094 203.717 205.719 202.686 206.145C201.655 206.571 200.55 206.789 199.435 206.788Z" fill="black"/>
<path d="M198.382 180.719C197.036 180.724 195.694 180.881 194.383 181.187L51.9229 198.302H190.931C190.931 196.047 191.827 193.884 193.421 192.289C195.016 190.694 197.179 189.798 199.435 189.798C201.69 189.798 203.853 190.694 205.448 192.289C207.043 193.884 207.939 196.047 207.939 198.302H216.008C216.002 193.634 214.141 189.158 210.836 185.861C207.531 182.564 203.051 180.714 198.382 180.719Z" fill="#111111"/>
<path d="M199.107 189.817C200.223 189.815 201.329 190.033 202.36 190.459C203.392 190.884 204.329 191.509 205.12 192.297C205.91 193.085 206.537 194.021 206.965 195.051C207.394 196.082 207.615 197.187 207.616 198.302H346.619L204.15 181.182C201.568 180.578 198.882 180.564 196.294 181.143C193.706 181.721 191.282 182.876 189.203 184.522C187.124 186.168 185.443 188.262 184.286 190.648C183.128 193.034 182.525 195.651 182.52 198.302H190.589C190.59 197.186 190.812 196.08 191.241 195.049C191.67 194.018 192.298 193.082 193.089 192.294C193.88 191.505 194.819 190.881 195.851 190.456C196.884 190.031 197.99 189.814 199.107 189.817Z" fill="#111111"/>
<path d="M200.159 215.891C201.506 215.888 202.848 215.731 204.159 215.423L346.619 198.302H207.616C207.564 200.524 206.644 202.637 205.055 204.19C203.465 205.742 201.331 206.612 199.109 206.612C196.887 206.612 194.753 205.742 193.164 204.19C191.574 202.637 190.655 200.524 190.603 198.302H182.534C182.536 200.615 182.994 202.904 183.881 205.039C184.768 207.174 186.067 209.114 187.704 210.747C189.341 212.38 191.283 213.675 193.42 214.558C195.557 215.44 197.847 215.893 200.159 215.891Z" fill="black"/>
<path d="M209.014 196.216C209.02 198.17 208.446 200.082 207.364 201.71C206.282 203.337 204.742 204.608 202.938 205.359C201.134 206.111 199.148 206.31 197.231 205.933C195.313 205.555 193.551 204.617 192.167 203.237C190.784 201.857 189.84 200.097 189.457 198.181C189.074 196.265 189.268 194.278 190.014 192.472C190.761 190.666 192.026 189.122 193.651 188.036C195.275 186.949 197.186 186.37 199.14 186.37C200.435 186.368 201.717 186.621 202.914 187.115C204.111 187.609 205.199 188.333 206.116 189.248C207.033 190.162 207.761 191.248 208.258 192.444C208.756 193.639 209.013 194.921 209.014 196.216Z" fill="#CFD1D2"/>
<path d="M208.458 196.216C208.462 198.06 207.92 199.864 206.899 201.399C205.878 202.935 204.424 204.133 202.722 204.842C201.02 205.55 199.145 205.738 197.336 205.381C195.527 205.025 193.865 204.139 192.559 202.837C191.254 201.534 190.364 199.874 190.003 198.066C189.641 196.258 189.824 194.383 190.529 192.679C191.233 190.975 192.428 189.519 193.961 188.494C195.493 187.469 197.296 186.922 199.14 186.922C200.362 186.92 201.573 187.159 202.702 187.625C203.832 188.091 204.859 188.775 205.724 189.638C206.59 190.502 207.277 191.527 207.746 192.655C208.215 193.784 208.457 194.994 208.458 196.216Z" fill="#919395"/>
<path d="M199.14 201.469C202.049 201.469 204.407 199.117 204.407 196.216C204.407 193.315 202.049 190.963 199.14 190.963C196.231 190.963 193.873 193.315 193.873 196.216C193.873 199.117 196.231 201.469 199.14 201.469Z" fill="#CFD1D2"/>
<path d="M199.14 200.782C201.666 200.782 203.715 198.738 203.715 196.216C203.715 193.695 201.666 191.651 199.14 191.651C196.613 191.651 194.565 193.695 194.565 196.216C194.565 198.738 196.613 200.782 199.14 200.782Z" fill="#A5A6A9"/>
<path d="M203.013 196.216C203.016 196.978 202.792 197.724 202.371 198.359C201.95 198.994 201.349 199.489 200.646 199.783C199.943 200.076 199.168 200.155 198.421 200.008C197.673 199.861 196.986 199.495 196.446 198.957C195.906 198.42 195.538 197.734 195.388 196.986C195.239 196.239 195.314 195.465 195.605 194.76C195.896 194.056 196.39 193.454 197.023 193.03C197.656 192.607 198.401 192.38 199.163 192.38C200.182 192.38 201.159 192.784 201.88 193.503C202.602 194.222 203.009 195.198 203.013 196.216Z" fill="#1A1A1A"/>
<path d="M201.843 196.216C201.845 196.751 201.688 197.275 201.392 197.721C201.096 198.167 200.675 198.515 200.181 198.721C199.687 198.927 199.143 198.982 198.618 198.878C198.093 198.775 197.61 198.518 197.231 198.141C196.852 197.763 196.594 197.281 196.489 196.756C196.384 196.232 196.437 195.688 196.641 195.193C196.845 194.698 197.192 194.276 197.637 193.978C198.081 193.681 198.605 193.522 199.14 193.522C199.494 193.521 199.845 193.59 200.173 193.725C200.501 193.861 200.799 194.059 201.05 194.309C201.301 194.559 201.5 194.856 201.636 195.184C201.772 195.511 201.843 195.862 201.843 196.216Z" fill="#111111"/>
</svg>
