<svg width="30" height="30" viewBox="0 0 30 30" fill="none" xmlns="http://www.w3.org/2000/svg">
<path d="M29.9279 28.7703L24.6341 16.4194C24.4949 16.0951 24.1759 15.8847 23.8232 15.8847H20.4611C21.8218 13.5076 22.9408 10.8766 22.9408 8.65048C22.9408 -2.8133 7.05917 -2.95315 7.05917 8.65048C7.05917 10.8766 8.17818 13.5076 9.53888 15.8847H6.17683C5.8239 15.8847 5.50484 16.0951 5.3659 16.4194L0.0720947 28.7703C-0.176929 29.3512 0.249707 30.0001 0.883023 30.0001H29.117C29.7489 30.0001 30.1774 29.3526 29.9279 28.7703ZM23.2411 17.6492L25.8534 23.7434C25.7716 23.786 17.2696 28.2009 17.2087 28.2357H15.3619C15.3152 28.1835 15.7121 28.5824 9.96162 22.8327L13.1557 21.198C13.8068 22.0291 14.263 22.5571 14.3342 22.6391C14.6857 23.0437 15.3145 23.043 15.6656 22.6391C15.8132 22.4692 17.6118 20.3853 19.3835 17.6492H23.2411ZM15 1.76914C17.9746 1.76914 21.1761 3.92269 21.1761 8.65048C21.1761 12.6257 16.72 18.5416 15 20.6766C13.28 18.5414 8.82385 12.6257 8.82385 8.65048C8.82385 3.89706 11.9257 1.76914 15 1.76914ZM6.75865 17.6492C11.0328 17.6492 10.5471 17.6499 10.6155 17.6478C11.1124 18.4153 11.6114 19.1314 12.0756 19.7686L4.10087 23.8501L6.75865 17.6492ZM3.01254 26.3893L8.31116 23.6775L12.87 28.2357H2.22107L3.01254 26.3893ZM21.0329 28.2357L26.5505 25.3696L27.7789 28.2357H21.0329Z" fill="#D4962E" fill-opacity="0.25"/>
<path d="M17.6468 7.9447C17.6468 6.48535 16.4594 5.29791 15 5.29791C13.5405 5.29791 12.353 6.48535 12.353 7.9447C12.353 9.40405 13.5405 10.5913 15 10.5913C16.4594 10.5913 17.6468 9.40405 17.6468 7.9447ZM14.1177 7.9447C14.1177 7.4581 14.5134 7.06236 15 7.06236C15.4864 7.06236 15.8824 7.4581 15.8824 7.9447C15.8824 8.43108 15.4864 8.82681 15 8.82681C14.5134 8.82681 14.1177 8.43108 14.1177 7.9447Z" fill="#D4962E" fill-opacity="0.25"/>
</svg>
